<?xml version="1.0" encoding="utf-8"?>
<!-- Generator: Adobe Illustrator 24.1.1, SVG Export Plug-In . SVG Version: 6.00 Build 0)  -->
<svg version="1.1" xmlns="http://www.w3.org/2000/svg" xmlns:xlink="http://www.w3.org/1999/xlink" x="0px" y="0px"
	 viewBox="0 0 1366 768" style="enable-background:new 0 0 1366 768;" xml:space="preserve">
<style type="text/css">
	.st0{display:none;}
	.st1{display:inline;}
	.st2{fill:#FFFFFF;}
	.st3{fill:none;}
	.st4{fill:url(#SVGID_1_);}
	.st5{fill:url(#SVGID_2_);}
	.st6{fill:url(#SVGID_3_);}
	.st7{fill:url(#SVGID_4_);}
	.st8{fill:url(#SVGID_5_);}
	.st9{fill:url(#SVGID_6_);}
	.st10{fill:#1D1D1B;}
	.st11{font-family:'MyriadPro-Regular';}
	.st12{font-size:209.983px;}
	.st13{fill:url(#SVGID_7_);}
	.st14{fill:url(#SVGID_8_);}
	.st15{fill:url(#SVGID_9_);}
	.st16{fill:url(#SVGID_10_);}
	.st17{fill:url(#SVGID_11_);}
	.st18{fill:url(#SVGID_12_);}
	.st19{fill:url(#SVGID_13_);}
	.st20{fill:url(#SVGID_14_);}
	.st21{fill:url(#SVGID_15_);}
	.st22{fill:url(#SVGID_16_);}
	.st23{fill:url(#SVGID_17_);}
	.st24{fill:url(#SVGID_18_);}
	.st25{fill:url(#SVGID_19_);}
	.st26{fill:url(#SVGID_20_);}
	.st27{fill:url(#SVGID_21_);}
	.st28{fill:url(#SVGID_22_);}
	.st29{fill:url(#SVGID_23_);}
	.st30{fill:url(#SVGID_24_);}
	.st31{fill:url(#SVGID_25_);}
	.st32{fill:url(#SVGID_26_);}
	.st33{fill:url(#SVGID_27_);}
	.st34{fill:url(#SVGID_28_);}
	.st35{fill:url(#SVGID_29_);}
	.st36{fill:url(#SVGID_30_);}
	.st37{fill:url(#SVGID_31_);}
	.st38{fill:#1B1464;}
	.st39{fill:#2E3192;}
	.st40{fill:url(#SVGID_32_);}
	.st41{fill:url(#SVGID_33_);}
	.st42{fill:url(#SVGID_34_);}
	.st43{fill:url(#SVGID_35_);}
	.st44{fill:url(#SVGID_36_);}
	.st45{fill:url(#SVGID_37_);}
	.st46{fill:url(#SVGID_38_);}
	.st47{fill:url(#SVGID_39_);}
	.st48{fill:url(#SVGID_40_);}
	.st49{fill:url(#SVGID_41_);}
	.st50{fill:url(#SVGID_42_);}
	.st51{fill:url(#SVGID_43_);}
	.st52{fill:url(#SVGID_44_);}
	.st53{fill:url(#SVGID_45_);}
	.st54{fill:url(#SVGID_46_);}
	.st55{fill:url(#SVGID_47_);}
	.st56{fill:url(#SVGID_48_);}
	.st57{fill:url(#SVGID_49_);}
	.st58{fill:url(#SVGID_50_);}
	.st59{fill:url(#SVGID_51_);}
	.st60{fill:url(#SVGID_52_);}
	.st61{fill:url(#SVGID_53_);}
	.st62{fill:url(#SVGID_54_);}
	.st63{fill:url(#SVGID_55_);}
	.st64{fill:url(#SVGID_56_);}
	.st65{fill:url(#SVGID_57_);}
	.st66{fill:url(#SVGID_58_);}
</style>
<g id="Ebene_1" class="st0">
	<g class="st1">
		<path class="st2" d="M358.6,737.8c-2,0.4-4-0.9-4.4-2.9c-0.4-2,0.9-4,2.9-4.4c2-0.4,4,0.9,4.5,2.9
			C361.9,735.4,360.6,737.4,358.6,737.8z"/>
	</g>
	<g class="st1">
		<g>
			<g>
				<line class="st3" x1="729.4" y1="346" x2="729.4" y2="346"/>
				<path class="st2" d="M741.4,398.6"/>
				<path class="st2" d="M750.3,323.9"/>
			</g>
			<linearGradient id="SVGID_1_" gradientUnits="userSpaceOnUse" x1="617.5185" y1="391.8512" x2="809.5232" y2="384.3833">
				<stop  offset="0.3547" style="stop-color:#72C0E3"/>
				<stop  offset="0.5855" style="stop-color:#009EE2"/>
				<stop  offset="0.7337" style="stop-color:#312782"/>
			</linearGradient>
			<path class="st4" d="M758.4,321v83.8c0,12.1-3.3,23.5-9,33.4c-12.3,21.3-35.9,35.9-63.2,36.7c48.9-1.7,52.7-56.3,52.7-56.3V301.4
				C749.6,301.4,758.4,310.2,758.4,321z"/>
			<linearGradient id="SVGID_2_" gradientUnits="userSpaceOnUse" x1="585.0325" y1="397.3175" x2="878.1937" y2="376.2332">
				<stop  offset="5.865922e-02" style="stop-color:#72C0E3"/>
				<stop  offset="0.2704" style="stop-color:#009EE2"/>
				<stop  offset="0.5169" style="stop-color:#312782"/>
			</linearGradient>
			<path class="st5" d="M738.8,301.4v117.2c0,0-3.7,54.6-52.7,56.3c-0.3,0-0.7,0-1,0c-0.4,0-0.9,0-1.3,0c-14.2,0-27.5-3.8-38.9-10.3
				c83.8,0,74.4-60,74.4-60v-82.3c0-0.5-0.1-1-0.1-1.5C719.2,310.2,728,301.4,738.8,301.4z"/>
			<linearGradient id="SVGID_3_" gradientUnits="userSpaceOnUse" x1="609.1797" y1="438.5651" x2="758.3514" y2="438.5651">
				<stop  offset="0" style="stop-color:#FFFFFF"/>
				<stop  offset="1" style="stop-color:#F29100"/>
			</linearGradient>
			<path class="st6" d="M666.1,438.4c5.4,0.7,11.3,0.7,17.7-0.2C677.1,439.2,671.2,439.2,666.1,438.4z"/>
			<linearGradient id="SVGID_4_" gradientUnits="userSpaceOnUse" x1="665.7023" y1="310.8813" x2="646.7643" y2="428.5114">
				<stop  offset="4.638738e-02" style="stop-color:#72C0E3"/>
				<stop  offset="5.344639e-02" style="stop-color:#70BEE2"/>
				<stop  offset="0.3022" style="stop-color:#2076B7"/>
				<stop  offset="0.4162" style="stop-color:#005AA6"/>
				<stop  offset="0.5508" style="stop-color:#164396"/>
				<stop  offset="0.7049" style="stop-color:#2A2E87"/>
				<stop  offset="0.8081" style="stop-color:#312782"/>
			</linearGradient>
			<path class="st7" d="M648.2,404.7c0,18.5,15.9,33.4,35.5,33.4c-6.4,0.8-12.3,1.3-17.8,0.6c0,0,0-0.5,0-0.5
				c-37.3-5.1-37.3-53.9-37.3-53.9v-83.1c10.8,0,19.6,8.8,19.6,19.6V404.7z"/>
			<linearGradient id="SVGID_5_" gradientUnits="userSpaceOnUse" x1="609.1796" y1="426.5371" x2="758.3514" y2="426.5371">
				<stop  offset="7.326451e-02" style="stop-color:#72C0E3"/>
				<stop  offset="0.3212" style="stop-color:#006CB5"/>
				<stop  offset="0.5901" style="stop-color:#312782"/>
			</linearGradient>
			<path class="st8" d="M609.2,388.4c1.1,3.3,16.1,45,56.8,50c0,0,0.1,0,0.1,0c5.1,0.8,11,0.8,17.7-0.2c19.6,0,35.5-15,35.5-33.4
				c0,0,9.4,60-74.4,60c-11.2-6.5-20.5-15.6-26.7-26.5c-5.7-9.9-9-21.3-9-33.4V388.4z"/>
			<linearGradient id="SVGID_6_" gradientUnits="userSpaceOnUse" x1="627.4216" y1="370.2515" x2="656.7911" y2="457.9573">
				<stop  offset="0" style="stop-color:#72C0E3"/>
				<stop  offset="0.3156" style="stop-color:#0066B1"/>
				<stop  offset="0.5484" style="stop-color:#233990"/>
				<stop  offset="0.6711" style="stop-color:#312782"/>
			</linearGradient>
			<path class="st9" d="M666,438.3c-40.8-4.9-55.7-46.7-56.8-50v-65.9c0-0.5-0.1-1-0.1-1.6c0-10.8,8.8-19.6,19.6-19.6v83.1
				C628.7,384.5,628.7,432.4,666,438.3z"/>
			<g>
				<path class="st3" d="M685.1,475c-0.4,0-0.9,0-1.3,0c-14.2,0-27.5-3.8-38.9-10.3c-11.2-6.5-20.5-15.6-26.7-26.5
					c-5.7-9.9-9-21.3-9-33.4v-16.4c1.1,3.3,16.1,45,56.8,50c-37.3-6-37.3-53.9-37.3-53.9v-83.1c10.8,0,19.6,8.8,19.6,19.6v83.8
					c0,18.5,15.9,33.4,35.5,33.4s35.5-15,35.5-33.4v-82.3c0-0.5-0.1-1-0.1-1.5c0-10.8,8.8-19.6,19.6-19.6c10.8,0,19.6,8.8,19.6,19.6
					v83.8c0,12.1-3.3,23.5-9,33.4c-12.3,21.3-35.9,35.9-63.2,36.7"/>
			</g>
			<path class="st3" d="M738.8,301.4v117.2c0,0-3.7,54.6-52.7,56.3c-0.3,0-0.7,0-1,0c-0.4,0-0.9,0-1.3,0"/>
			<path class="st3" d="M719.3,404.7c0,0,9.4,60-74.4,60"/>
			<path class="st3" d="M666.1,438.4c5.4,0.7,11.3,0.7,17.7-0.2"/>
			<path class="st3" d="M683.8,438.2c-6.7,1-12.5,1-17.7,0.2c0,0-0.1,0-0.1,0"/>
			<path class="st2" d="M748,353v-13.6l18.9-18.9l-28.1-28.1l-28.1,28.1l18.9,18.9v13.5c-1.2,0.6-2,1.8-2,3.1c0,1.9,1.5,3.5,3.5,3.5
				c1.9,0,3.5-1.6,3.5-3.5c0-1.3-0.7-2.4-1.7-3v-10.4l4.2,4.2v16.5c-1,0.6-1.7,1.7-1.7,3c0,1.9,1.5,3.5,3.5,3.5s3.5-1.5,3.5-3.5
				c0-1.3-0.7-2.4-1.7-3v-16.5l4.2-4.2V353c-1.1,0.6-1.8,1.7-1.8,3c0,1.9,1.5,3.5,3.5,3.5c1.9,0,3.5-1.6,3.5-3.5
				C749.8,354.7,749.1,353.6,748,353z M738.8,332.3l-15.7-15.7l15.7-15.7l15.7,15.7L738.8,332.3z"/>
		</g>
		<rect x="783" y="305.8" class="st3" width="774.8" height="217.8"/>
		<text transform="matrix(1 0 0 1 782.9965 454.8594)" class="st10 st11 st12">DATA</text>
	</g>
	<g class="st1">
		<linearGradient id="SVGID_7_" gradientUnits="userSpaceOnUse" x1="199.6561" y1="306.6249" x2="211.7625" y2="306.6249">
			<stop  offset="4.638738e-02" style="stop-color:#72C0E3"/>
			<stop  offset="5.344639e-02" style="stop-color:#70BEE2"/>
			<stop  offset="0.3022" style="stop-color:#2076B7"/>
			<stop  offset="0.4162" style="stop-color:#005AA6"/>
			<stop  offset="0.5508" style="stop-color:#164396"/>
			<stop  offset="0.7049" style="stop-color:#2A2E87"/>
			<stop  offset="0.8081" style="stop-color:#312782"/>
		</linearGradient>
		<path class="st13" d="M211.6,307.9c-0.7,3.3-3.9,5.4-7.2,4.7c-3.3-0.7-5.4-3.9-4.7-7.2c0.7-3.3,3.9-5.3,7.2-4.7
			C210.2,301.4,212.3,304.6,211.6,307.9z"/>
		<linearGradient id="SVGID_8_" gradientUnits="userSpaceOnUse" x1="186.2139" y1="416.5065" x2="542.0336" y2="416.5065">
			<stop  offset="4.638738e-02" style="stop-color:#72C0E3"/>
			<stop  offset="5.344639e-02" style="stop-color:#70BEE2"/>
			<stop  offset="0.3022" style="stop-color:#2076B7"/>
			<stop  offset="0.4162" style="stop-color:#005AA6"/>
			<stop  offset="0.5508" style="stop-color:#164396"/>
			<stop  offset="0.7049" style="stop-color:#2A2E87"/>
			<stop  offset="0.8081" style="stop-color:#312782"/>
		</linearGradient>
		<path class="st14" d="M530.5,339.8c-4.4,0-8.3,2.5-10.2,6.2l-73.8-0.3c6.8-18.5,7.9-29,8-29.7l-0.7,0l0-0.1h0.7c0,0,0,0,0,0
			l31.1-1.5l-0.3-0.1l27.4-0.3c2.6,3.3,6.9,5.1,11.6,4c4.1-0.9,7.6-4.2,8.6-8.4c1.9-7.6-3.9-14.5-11.2-14.5c-4.4,0-8.3,2.5-10.2,6.2
			l-67.8,0.6c-0.6,4.9-1.4,9.5-2.4,13.8c-7,30.2-22.3,44.7-22.3,44.7c-5.1-1.5-0.4-13.6-0.4-13.6s2.1-19.8-13.9-30.9
			c1.4-0.5,2.4-0.9,2.5-1.2c0,0,16.5-9.8,10.5-22.9c0,0-2.5,11.6-22.6,13.2c0,0-16.3,1.5-20.1,3.4c0,0-5.8,1.1-8.9,3.7h-1.7
			c0,0,0,0,0,0s0,0,0,0h-1.7c-3.1-2.6-8.9-3.7-8.9-3.7c-3.8-1.9-20.1-3.4-20.1-3.4c-20.1-1.6-22.6-13.2-22.6-13.2
			c-6,13.2,10.5,22.9,10.5,22.9c0.1,0.3,1,0.7,2.3,1.1c-16.1,11-14,30.9-14,30.9s4.8,12.1-0.4,13.6c0,0-16.8-14.5-24.2-44.5l-0.5-2
			l-2-12l-66.7-0.5c-2-3.7-5.8-6.2-10.2-6.2c-7.3,0-13.1,6.8-11.2,14.5c1,4.2,4.5,7.5,8.6,8.4c4.7,1,9-0.8,11.6-4l27.4,0.3l-0.3,0.1
			l32.8,1.5h-1c0,0,1.1,10.4,8.1,29.5L208,346c-2-3.7-5.8-6.2-10.2-6.2c-7.3,0-13.1,6.8-11.2,14.5c1,4.2,4.5,7.5,8.6,8.4
			c4.7,1,9-0.8,11.6-4l80.6,0.9c3.4,7.7,7.6,16.3,12.8,25.7l-64.3,1.4c-2-3.7-5.8-6.2-10.2-6.2c-7.4,0-13.1,6.8-11.2,14.5
			c1,4.1,4.4,7.5,8.6,8.4c4.7,1,9-0.8,11.6-4l74,0.6c4.9,7.9,10.4,16.3,16.7,25.2l-53.1,0.4c-2-3.7-5.8-6.2-10.2-6.2
			c-7.3,0-13.1,6.8-11.2,14.5c1,4.1,4.5,7.5,8.6,8.4c4.7,1,9-0.8,11.6-4l64.4,0.7c2.1,2.7,4.2,5.4,6.4,8.2l-9.4,20.4
			c-4,0-6.4,3.2-6.4,7.2c0,4,3.3,7.3,7.3,7.3c4,0,7.3-3.3,7.3-7.3c0-1.8-0.7-3.5-1.8-4.8c1.8-2.8,4.2-5.8,6.9-7.3l-2.8,9.5v30.8
			c-2.4,1.3-4.1,3.9-4.1,6.9c0,4.3,3.5,7.8,7.8,7.8c4.3,0,7.8-3.5,7.8-7.8c0-2.9-1.6-5.5-4.1-6.9v-23.3l9.6,9.5v37.3
			c-2.4,1.4-4,3.9-4,6.8c0,4.3,3.5,7.8,7.8,7.8s7.8-3.5,7.8-7.8c0-2.9-1.6-5.4-3.9-6.8V489l9.6-9.6v23.5c-2.3,1.4-3.8,3.8-3.8,6.7
			c0,4.3,3.5,7.8,7.8,7.8c4.3,0,7.8-3.5,7.8-7.8c0-3.1-1.8-5.8-4.5-7.1V472l-2.8-9.9c2.9,1.5,5.4,4.6,7.4,7.6
			c-1.1,1.3-1.8,2.9-1.8,4.8c0,4,3.3,7.3,7.3,7.3c4,0,7.3-3.3,7.3-7.3c0-4-2.3-7.2-6.4-7.2l-9.4-20.4c2.2-2.8,4.3-5.5,6.4-8.2
			l64.4-0.7c2.6,3.2,6.9,5.1,11.6,4c4.1-0.9,7.6-4.2,8.6-8.4c1.9-7.6-3.9-14.5-11.2-14.5c-4.4,0-8.3,2.5-10.2,6.2l-53.1-0.4
			c6.3-8.8,11.9-17.2,16.7-25.2l74-0.6c2.6,3.2,6.9,5.1,11.6,4c4.1-0.9,7.6-4.2,8.6-8.4c1.8-7.6-3.9-14.5-11.2-14.5
			c-4.4,0-8.3,2.5-10.2,6.2l-64.3-1.4c5.2-9.4,9.4-18,12.8-25.7l80.6-0.9c2.6,3.3,6.9,5.1,11.6,4c4.2-0.9,7.6-4.2,8.6-8.4
			C543.5,346.6,537.8,339.8,530.5,339.8z M520.5,300.5c3.3-0.7,6.5,1.4,7.2,4.7c0.7,3.3-1.4,6.5-4.7,7.2c-3.3,0.7-6.5-1.4-7.2-4.7
			C515.1,304.5,517.2,301.2,520.5,300.5z M367,432.6l-2.8,3.7l0,0l0,0l-2.8-3.7c0,0-25.6-10.8-37.3-51c3-1,2.5-5,2.4-5.8
			c2.5,9.7,17.5,6.4,17.5,6.4c7-2.5,12.9,1.9,15.4,4.2l-3.7,2.5l8.5,5.9l0,0l0,0l8.5-5.9l-3.6-2.5c2.5-2.3,8.4-6.7,15.4-4.2
			c0,0,15,3.3,17.5-6.4c-0.1,0.7-0.7,4.7,2.4,5.8C392.6,421.8,367,432.6,367,432.6z"/>
		<g>
			<path class="st2" d="M357.6,349.1h13.2c0,0,3.5,7.3-6.6,12.5c0,0,0,0,0,0s0,0,0,0C354.1,356.5,357.6,349.1,357.6,349.1z"/>
		</g>
		<g>
			<path class="st2" d="M203.4,352.6c-0.7,3.3-3.9,5.4-7.2,4.7c-3.3-0.7-5.4-3.9-4.7-7.2c0.7-3.3,3.9-5.4,7.2-4.7
				C202.1,346.1,204.1,349.3,203.4,352.6z"/>
		</g>
		<g>
			<path class="st2" d="M231.4,393.3c-0.7,3.3-3.9,5.4-7.2,4.7c-3.3-0.7-5.4-3.9-4.7-7.2c0.7-3.3,3.9-5.3,7.2-4.7
				C230,386.8,232,390,231.4,393.3z"/>
		</g>
		<g>
			<path class="st2" d="M267.8,432c-0.7,3.3-3.9,5.4-7.2,4.7c-3.3-0.7-5.4-3.9-4.7-7.2c0.7-3.3,3.9-5.3,7.2-4.7
				C266.4,425.5,268.5,428.8,267.8,432z"/>
		</g>
		<g>
			<path class="st2" d="M337,474.9c-0.4,2-2.4,3.3-4.4,2.9c-2-0.4-3.3-2.4-2.9-4.4c0.4-2,2.4-3.3,4.4-2.9
				C336.2,470.9,337.5,472.9,337,474.9z"/>
		</g>
		<g>
			<path class="st2" d="M394.1,470.5c2-0.4,4,0.9,4.4,2.9c0.4,2-0.9,4-2.9,4.4c-2,0.4-4-0.9-4.4-2.9
				C390.8,472.9,392.1,470.9,394.1,470.5z"/>
		</g>
		<g>
			<path class="st2" d="M465.1,424.8c3.3-0.7,6.5,1.4,7.2,4.7c0.7,3.3-1.4,6.5-4.7,7.2c-3.3,0.7-6.5-1.4-7.2-4.7
				C459.7,428.8,461.8,425.5,465.1,424.8z"/>
		</g>
		<g>
			<path class="st2" d="M347.4,513.4c-2,0.4-4-0.9-4.4-2.9c-0.4-2,0.9-4,2.9-4.4c2-0.4,4,0.9,4.4,2.9
				C350.7,511,349.4,513,347.4,513.4z"/>
		</g>
		<g>
			<path class="st2" d="M364.7,537c-2,0.4-4-0.9-4.4-2.9c-0.4-2,0.9-4,2.9-4.4c2-0.4,4,0.9,4.5,2.9
				C368.1,534.6,366.7,536.6,364.7,537z"/>
		</g>
		<g>
			<path class="st2" d="M385.2,509c0.4,2-0.9,4-2.9,4.4c-2,0.4-4-0.9-4.4-2.9c-0.4-2,0.9-4,2.9-4.4
				C382.7,505.6,384.7,506.9,385.2,509z"/>
		</g>
		<g>
			<path class="st2" d="M501.6,386.1c3.3-0.7,6.5,1.4,7.2,4.7c0.7,3.3-1.4,6.5-4.7,7.2c-3.3,0.7-6.5-1.4-7.2-4.7
				C496.2,390,498.3,386.8,501.6,386.1z"/>
		</g>
		<g>
			<path class="st2" d="M529.5,345.4c3.3-0.7,6.5,1.4,7.2,4.7c0.7,3.3-1.4,6.5-4.7,7.2c-3.3,0.7-6.5-1.4-7.2-4.7
				C524.1,349.3,526.2,346.1,529.5,345.4z"/>
		</g>
		<g>
			<path class="st2" d="M379,341.7c0,0,6.5,3.3,11.9,0c0,0,5.4-1.9,4.4-11.3C395.2,330.4,382.8,330.3,379,341.7z"/>
		</g>
		<g>
			<path class="st2" d="M349,341.6c0,0-6.5,3.3-11.9,0c0,0-5.4-1.9-4.4-11.3C332.8,330.4,345.1,330.2,349,341.6z"/>
		</g>
		<g>
			<path class="st2" d="M520.4,300.9c3.3-0.7,6.5,1.4,7.2,4.7c0.7,3.3-1.4,6.5-4.7,7.2c-3.3,0.7-6.5-1.4-7.2-4.7
				C515,304.8,517.1,301.6,520.4,300.9z"/>
		</g>
		<g>
			<linearGradient id="SVGID_9_" gradientUnits="userSpaceOnUse" x1="199.6561" y1="306.6249" x2="211.7625" y2="306.6249">
				<stop  offset="4.638738e-02" style="stop-color:#72C0E3"/>
				<stop  offset="5.344639e-02" style="stop-color:#70BEE2"/>
				<stop  offset="0.3022" style="stop-color:#2076B7"/>
				<stop  offset="0.4162" style="stop-color:#005AA6"/>
				<stop  offset="0.5508" style="stop-color:#164396"/>
				<stop  offset="0.7049" style="stop-color:#2A2E87"/>
				<stop  offset="0.8081" style="stop-color:#312782"/>
			</linearGradient>
			<path class="st15" d="M211.6,307.9c-0.7,3.3-3.9,5.4-7.2,4.7c-3.3-0.7-5.4-3.9-4.7-7.2c0.7-3.3,3.9-5.3,7.2-4.7
				C210.2,301.4,212.3,304.6,211.6,307.9z"/>
			<g>
				<path class="st2" d="M211.6,307.9c-0.7,3.3-3.9,5.4-7.2,4.7c-3.3-0.7-5.4-3.9-4.7-7.2c0.7-3.3,3.9-5.3,7.2-4.7
					C210.2,301.4,212.3,304.6,211.6,307.9z"/>
			</g>
		</g>
		<g>
			<linearGradient id="SVGID_10_" gradientUnits="userSpaceOnUse" x1="453.7837" y1="315.9515" x2="454.4937" y2="315.9515">
				<stop  offset="4.638738e-02" style="stop-color:#72C0E3"/>
				<stop  offset="5.344639e-02" style="stop-color:#70BEE2"/>
				<stop  offset="0.3022" style="stop-color:#2076B7"/>
				<stop  offset="0.4162" style="stop-color:#005AA6"/>
				<stop  offset="0.5508" style="stop-color:#164396"/>
				<stop  offset="0.7049" style="stop-color:#2A2E87"/>
				<stop  offset="0.8081" style="stop-color:#312782"/>
			</linearGradient>
			<path class="st16" d="M454.5,315.9C454.5,315.9,454.5,315.9,454.5,315.9l-0.7,0.1l0-0.1H454.5z"/>
			<linearGradient id="SVGID_11_" gradientUnits="userSpaceOnUse" x1="515.6821" y1="306.4601" x2="527.7818" y2="306.4601">
				<stop  offset="4.638738e-02" style="stop-color:#72C0E3"/>
				<stop  offset="5.344639e-02" style="stop-color:#70BEE2"/>
				<stop  offset="0.3022" style="stop-color:#2076B7"/>
				<stop  offset="0.4162" style="stop-color:#005AA6"/>
				<stop  offset="0.5508" style="stop-color:#164396"/>
				<stop  offset="0.7049" style="stop-color:#2A2E87"/>
				<stop  offset="0.8081" style="stop-color:#312782"/>
			</linearGradient>
			<path class="st17" d="M523,312.4c-3.3,0.7-6.5-1.4-7.2-4.7c-0.7-3.3,1.4-6.5,4.7-7.2c3.3-0.7,6.5,1.4,7.2,4.7
				C528.4,308.5,526.3,311.7,523,312.4z"/>
			<g>
				<path class="st2" d="M523,312.4c-3.3,0.7-6.5-1.4-7.2-4.7c-0.7-3.3,1.4-6.5,4.7-7.2c3.3-0.7,6.5,1.4,7.2,4.7
					C528.4,308.5,526.3,311.7,523,312.4z"/>
			</g>
		</g>
	</g>
	<g class="st1">
		<path class="st2" d="M707.1,595.9c2-0.4,4,0.9,4.4,2.9c0.4,2-0.9,4-2.9,4.4c-2,0.4-4-0.9-4.4-2.9
			C703.8,598.3,705.1,596.4,707.1,595.9z"/>
	</g>
	<g class="st1">
		<linearGradient id="SVGID_12_" gradientUnits="userSpaceOnUse" x1="199.6561" y1="306.6249" x2="211.7625" y2="306.6249">
			<stop  offset="4.638738e-02" style="stop-color:#72C0E3"/>
			<stop  offset="5.344639e-02" style="stop-color:#70BEE2"/>
			<stop  offset="0.3022" style="stop-color:#2076B7"/>
			<stop  offset="0.4162" style="stop-color:#005AA6"/>
			<stop  offset="0.5508" style="stop-color:#164396"/>
			<stop  offset="0.7049" style="stop-color:#2A2E87"/>
			<stop  offset="0.8081" style="stop-color:#312782"/>
		</linearGradient>
		<path class="st18" d="M211.6,307.9c-0.7,3.3-3.9,5.4-7.2,4.7c-3.3-0.7-5.4-3.9-4.7-7.2c0.7-3.3,3.9-5.3,7.2-4.7
			C210.2,301.4,212.3,304.6,211.6,307.9z"/>
		<linearGradient id="SVGID_13_" gradientUnits="userSpaceOnUse" x1="186.2139" y1="416.5065" x2="542.0336" y2="416.5065">
			<stop  offset="4.638738e-02" style="stop-color:#72C0E3"/>
			<stop  offset="5.344639e-02" style="stop-color:#70BEE2"/>
			<stop  offset="0.3022" style="stop-color:#2076B7"/>
			<stop  offset="0.4162" style="stop-color:#005AA6"/>
			<stop  offset="0.5508" style="stop-color:#164396"/>
			<stop  offset="0.7049" style="stop-color:#2A2E87"/>
			<stop  offset="0.8081" style="stop-color:#312782"/>
		</linearGradient>
		<path class="st19" d="M530.5,339.8c-4.4,0-8.3,2.5-10.2,6.2l-73.8-0.3c6.8-18.5,7.9-29,8-29.7l-0.7,0l0-0.1h0.7c0,0,0,0,0,0
			l31.1-1.5l-0.3-0.1l27.4-0.3c2.6,3.3,6.9,5.1,11.6,4c4.1-0.9,7.6-4.2,8.6-8.4c1.9-7.6-3.9-14.5-11.2-14.5c-4.4,0-8.3,2.5-10.2,6.2
			l-67.8,0.6c-0.6,4.9-1.4,9.5-2.4,13.8c-7,30.2-22.3,44.7-22.3,44.7c-5.1-1.5-0.4-13.6-0.4-13.6s2.1-19.8-13.9-30.9
			c1.4-0.5,2.4-0.9,2.5-1.2c0,0,16.5-9.8,10.5-22.9c0,0-2.5,11.6-22.6,13.2c0,0-16.3,1.5-20.1,3.4c0,0-5.8,1.1-8.9,3.7h-1.7
			c0,0,0,0,0,0s0,0,0,0h-1.7c-3.1-2.6-8.9-3.7-8.9-3.7c-3.8-1.9-20.1-3.4-20.1-3.4c-20.1-1.6-22.6-13.2-22.6-13.2
			c-6,13.2,10.5,22.9,10.5,22.9c0.1,0.3,1,0.7,2.3,1.1c-16.1,11-14,30.9-14,30.9s4.8,12.1-0.4,13.6c0,0-16.8-14.5-24.2-44.5l-0.5-2
			l-2-12l-66.7-0.5c-2-3.7-5.8-6.2-10.2-6.2c-7.3,0-13.1,6.8-11.2,14.5c1,4.2,4.5,7.5,8.6,8.4c4.7,1,9-0.8,11.6-4l27.4,0.3l-0.3,0.1
			l32.8,1.5h-1c0,0,1.1,10.4,8.1,29.5L208,346c-2-3.7-5.8-6.2-10.2-6.2c-7.3,0-13.1,6.8-11.2,14.5c1,4.2,4.5,7.5,8.6,8.4
			c4.7,1,9-0.8,11.6-4l80.6,0.9c3.4,7.7,7.6,16.3,12.8,25.7l-64.3,1.4c-2-3.7-5.8-6.2-10.2-6.2c-7.4,0-13.1,6.8-11.2,14.5
			c1,4.1,4.4,7.5,8.6,8.4c4.7,1,9-0.8,11.6-4l74,0.6c4.9,7.9,10.4,16.3,16.7,25.2l-53.1,0.4c-2-3.7-5.8-6.2-10.2-6.2
			c-7.3,0-13.1,6.8-11.2,14.5c1,4.1,4.5,7.5,8.6,8.4c4.7,1,9-0.8,11.6-4l64.4,0.7c2.1,2.7,4.2,5.4,6.4,8.2l-9.4,20.4
			c-4,0-6.4,3.2-6.4,7.2c0,4,3.3,7.3,7.3,7.3c4,0,7.3-3.3,7.3-7.3c0-1.8-0.7-3.5-1.8-4.8c1.8-2.8,4.2-5.8,6.9-7.3l-2.8,9.5v30.8
			c-2.4,1.3-4.1,3.9-4.1,6.9c0,4.3,3.5,7.8,7.8,7.8c4.3,0,7.8-3.5,7.8-7.8c0-2.9-1.6-5.5-4.1-6.9v-23.3l9.6,9.5v37.3
			c-2.4,1.4-4,3.9-4,6.8c0,4.3,3.5,7.8,7.8,7.8s7.8-3.5,7.8-7.8c0-2.9-1.6-5.4-3.9-6.8V489l9.6-9.6v23.5c-2.3,1.4-3.8,3.8-3.8,6.7
			c0,4.3,3.5,7.8,7.8,7.8c4.3,0,7.8-3.5,7.8-7.8c0-3.1-1.8-5.8-4.5-7.1V472l-2.8-9.9c2.9,1.5,5.4,4.6,7.4,7.6
			c-1.1,1.3-1.8,2.9-1.8,4.8c0,4,3.3,7.3,7.3,7.3c4,0,7.3-3.3,7.3-7.3c0-4-2.3-7.2-6.4-7.2l-9.4-20.4c2.2-2.8,4.3-5.5,6.4-8.2
			l64.4-0.7c2.6,3.2,6.9,5.1,11.6,4c4.1-0.9,7.6-4.2,8.6-8.4c1.9-7.6-3.9-14.5-11.2-14.5c-4.4,0-8.3,2.5-10.2,6.2l-53.1-0.4
			c6.3-8.8,11.9-17.2,16.7-25.2l74-0.6c2.6,3.2,6.9,5.1,11.6,4c4.1-0.9,7.6-4.2,8.6-8.4c1.8-7.6-3.9-14.5-11.2-14.5
			c-4.4,0-8.3,2.5-10.2,6.2l-64.3-1.4c5.2-9.4,9.4-18,12.8-25.7l80.6-0.9c2.6,3.3,6.9,5.1,11.6,4c4.2-0.9,7.6-4.2,8.6-8.4
			C543.5,346.6,537.8,339.8,530.5,339.8z M520.5,300.5c3.3-0.7,6.5,1.4,7.2,4.7c0.7,3.3-1.4,6.5-4.7,7.2c-3.3,0.7-6.5-1.4-7.2-4.7
			C515.1,304.5,517.2,301.2,520.5,300.5z M367,432.6l-2.8,3.7l0,0l0,0l-2.8-3.7c0,0-25.6-10.8-37.3-51c3-1,2.5-5,2.4-5.8
			c2.5,9.7,17.5,6.4,17.5,6.4c7-2.5,12.9,1.9,15.4,4.2l-3.7,2.5l8.5,5.9l0,0l0,0l8.5-5.9l-3.6-2.5c2.5-2.3,8.4-6.7,15.4-4.2
			c0,0,15,3.3,17.5-6.4c-0.1,0.7-0.7,4.7,2.4,5.8C392.6,421.8,367,432.6,367,432.6z"/>
		<g>
			<path class="st2" d="M357.6,349.1h13.2c0,0,3.5,7.3-6.6,12.5c0,0,0,0,0,0s0,0,0,0C354.1,356.5,357.6,349.1,357.6,349.1z"/>
		</g>
		<g>
			<path class="st2" d="M203.4,352.6c-0.7,3.3-3.9,5.4-7.2,4.7c-3.3-0.7-5.4-3.9-4.7-7.2c0.7-3.3,3.9-5.4,7.2-4.7
				C202.1,346.1,204.1,349.3,203.4,352.6z"/>
		</g>
		<g>
			<path class="st2" d="M231.4,393.3c-0.7,3.3-3.9,5.4-7.2,4.7c-3.3-0.7-5.4-3.9-4.7-7.2c0.7-3.3,3.9-5.3,7.2-4.7
				C230,386.8,232,390,231.4,393.3z"/>
		</g>
		<g>
			<path class="st2" d="M267.8,432c-0.7,3.3-3.9,5.4-7.2,4.7c-3.3-0.7-5.4-3.9-4.7-7.2c0.7-3.3,3.9-5.3,7.2-4.7
				C266.4,425.5,268.5,428.8,267.8,432z"/>
		</g>
		<g>
			<path class="st2" d="M337,474.9c-0.4,2-2.4,3.3-4.4,2.9c-2-0.4-3.3-2.4-2.9-4.4c0.4-2,2.4-3.3,4.4-2.9
				C336.2,470.9,337.5,472.9,337,474.9z"/>
		</g>
		<g>
			<path class="st2" d="M394.1,470.5c2-0.4,4,0.9,4.4,2.9c0.4,2-0.9,4-2.9,4.4c-2,0.4-4-0.9-4.4-2.9
				C390.8,472.9,392.1,470.9,394.1,470.5z"/>
		</g>
		<g>
			<path class="st2" d="M465.1,424.8c3.3-0.7,6.5,1.4,7.2,4.7c0.7,3.3-1.4,6.5-4.7,7.2c-3.3,0.7-6.5-1.4-7.2-4.7
				C459.7,428.8,461.8,425.5,465.1,424.8z"/>
		</g>
		<g>
			<path class="st2" d="M347.4,513.4c-2,0.4-4-0.9-4.4-2.9c-0.4-2,0.9-4,2.9-4.4c2-0.4,4,0.9,4.4,2.9
				C350.7,511,349.4,513,347.4,513.4z"/>
		</g>
		<g>
			<path class="st2" d="M364.7,537c-2,0.4-4-0.9-4.4-2.9c-0.4-2,0.9-4,2.9-4.4c2-0.4,4,0.9,4.5,2.9
				C368.1,534.6,366.7,536.6,364.7,537z"/>
		</g>
		<g>
			<path class="st2" d="M385.2,509c0.4,2-0.9,4-2.9,4.4c-2,0.4-4-0.9-4.4-2.9c-0.4-2,0.9-4,2.9-4.4
				C382.7,505.6,384.7,506.9,385.2,509z"/>
		</g>
		<g>
			<path class="st2" d="M501.6,386.1c3.3-0.7,6.5,1.4,7.2,4.7c0.7,3.3-1.4,6.5-4.7,7.2c-3.3,0.7-6.5-1.4-7.2-4.7
				C496.2,390,498.3,386.8,501.6,386.1z"/>
		</g>
		<g>
			<path class="st2" d="M529.5,345.4c3.3-0.7,6.5,1.4,7.2,4.7c0.7,3.3-1.4,6.5-4.7,7.2c-3.3,0.7-6.5-1.4-7.2-4.7
				C524.1,349.3,526.2,346.1,529.5,345.4z"/>
		</g>
		<g>
			<path class="st2" d="M379,341.7c0,0,6.5,3.3,11.9,0c0,0,5.4-1.9,4.4-11.3C395.2,330.4,382.8,330.3,379,341.7z"/>
		</g>
		<g>
			<path class="st2" d="M349,341.6c0,0-6.5,3.3-11.9,0c0,0-5.4-1.9-4.4-11.3C332.8,330.4,345.1,330.2,349,341.6z"/>
		</g>
		<g>
			<path class="st2" d="M520.4,300.9c3.3-0.7,6.5,1.4,7.2,4.7c0.7,3.3-1.4,6.5-4.7,7.2c-3.3,0.7-6.5-1.4-7.2-4.7
				C515,304.8,517.1,301.6,520.4,300.9z"/>
		</g>
		<g>
			<linearGradient id="SVGID_14_" gradientUnits="userSpaceOnUse" x1="199.6561" y1="306.6249" x2="211.7625" y2="306.6249">
				<stop  offset="4.638738e-02" style="stop-color:#72C0E3"/>
				<stop  offset="5.344639e-02" style="stop-color:#70BEE2"/>
				<stop  offset="0.3022" style="stop-color:#2076B7"/>
				<stop  offset="0.4162" style="stop-color:#005AA6"/>
				<stop  offset="0.5508" style="stop-color:#164396"/>
				<stop  offset="0.7049" style="stop-color:#2A2E87"/>
				<stop  offset="0.8081" style="stop-color:#312782"/>
			</linearGradient>
			<path class="st20" d="M211.6,307.9c-0.7,3.3-3.9,5.4-7.2,4.7c-3.3-0.7-5.4-3.9-4.7-7.2c0.7-3.3,3.9-5.3,7.2-4.7
				C210.2,301.4,212.3,304.6,211.6,307.9z"/>
			<g>
				<path class="st2" d="M211.6,307.9c-0.7,3.3-3.9,5.4-7.2,4.7c-3.3-0.7-5.4-3.9-4.7-7.2c0.7-3.3,3.9-5.3,7.2-4.7
					C210.2,301.4,212.3,304.6,211.6,307.9z"/>
			</g>
		</g>
		<g>
			<linearGradient id="SVGID_15_" gradientUnits="userSpaceOnUse" x1="453.7837" y1="315.9515" x2="454.4937" y2="315.9515">
				<stop  offset="4.638738e-02" style="stop-color:#72C0E3"/>
				<stop  offset="5.344639e-02" style="stop-color:#70BEE2"/>
				<stop  offset="0.3022" style="stop-color:#2076B7"/>
				<stop  offset="0.4162" style="stop-color:#005AA6"/>
				<stop  offset="0.5508" style="stop-color:#164396"/>
				<stop  offset="0.7049" style="stop-color:#2A2E87"/>
				<stop  offset="0.8081" style="stop-color:#312782"/>
			</linearGradient>
			<path class="st21" d="M454.5,315.9C454.5,315.9,454.5,315.9,454.5,315.9l-0.7,0.1l0-0.1H454.5z"/>
			<linearGradient id="SVGID_16_" gradientUnits="userSpaceOnUse" x1="515.6821" y1="306.4601" x2="527.7818" y2="306.4601">
				<stop  offset="4.638738e-02" style="stop-color:#72C0E3"/>
				<stop  offset="5.344639e-02" style="stop-color:#70BEE2"/>
				<stop  offset="0.3022" style="stop-color:#2076B7"/>
				<stop  offset="0.4162" style="stop-color:#005AA6"/>
				<stop  offset="0.5508" style="stop-color:#164396"/>
				<stop  offset="0.7049" style="stop-color:#2A2E87"/>
				<stop  offset="0.8081" style="stop-color:#312782"/>
			</linearGradient>
			<path class="st22" d="M523,312.4c-3.3,0.7-6.5-1.4-7.2-4.7c-0.7-3.3,1.4-6.5,4.7-7.2c3.3-0.7,6.5,1.4,7.2,4.7
				C528.4,308.5,526.3,311.7,523,312.4z"/>
			<g>
				<path class="st2" d="M523,312.4c-3.3,0.7-6.5-1.4-7.2-4.7c-0.7-3.3,1.4-6.5,4.7-7.2c3.3-0.7,6.5,1.4,7.2,4.7
					C528.4,308.5,526.3,311.7,523,312.4z"/>
			</g>
		</g>
	</g>
</g>
<g id="Ebene_2" class="st0">
	<g class="st1">
		<linearGradient id="SVGID_17_" gradientUnits="userSpaceOnUse" x1="168.2137" y1="365.6922" x2="524.0334" y2="365.6922">
			<stop  offset="4.638738e-02" style="stop-color:#72C0E3"/>
			<stop  offset="5.344639e-02" style="stop-color:#70BEE2"/>
			<stop  offset="0.3022" style="stop-color:#2076B7"/>
			<stop  offset="0.4162" style="stop-color:#005AA6"/>
			<stop  offset="0.5508" style="stop-color:#164396"/>
			<stop  offset="0.7049" style="stop-color:#2A2E87"/>
			<stop  offset="0.8081" style="stop-color:#312782"/>
		</linearGradient>
		<path class="st23" d="M324.6,274.5c1.5,0.8,2.5,2.3,2.5,4c0,2.5-2.2,4.6-5,4.6s-5-2-5-4.6c0-1.6,0.9-3.1,2.3-3.9
			c-3.5,1.1-6,4.4-6,8.3c0,4.8,3.9,8.7,8.7,8.7s8.7-3.9,8.7-8.7C330.9,278.9,328.2,275.6,324.6,274.5z M350,290.8h-9.4
			c0,0-1.4,2.9,1,6h7.5C351.4,293.7,350,290.8,350,290.8z M370.6,274.5c1.5,0.8,2.5,2.3,2.5,4c0,2.5-2.2,4.6-5,4.6c-2.8,0-5-2-5-4.6
			c0-1.6,0.9-3.1,2.4-3.9c-3.5,1.1-6,4.4-6,8.3c0,4.8,3.9,8.7,8.7,8.7s8.7-3.9,8.7-8.7C376.9,278.9,374.3,275.6,370.6,274.5z
			 M370.6,274.5c1.5,0.8,2.5,2.3,2.5,4c0,2.5-2.2,4.6-5,4.6c-2.8,0-5-2-5-4.6c0-1.6,0.9-3.1,2.4-3.9c-3.5,1.1-6,4.4-6,8.3
			c0,4.8,3.9,8.7,8.7,8.7s8.7-3.9,8.7-8.7C376.9,278.9,374.3,275.6,370.6,274.5z M340.5,290.8c0,0-1.4,2.9,1,6h7.5
			c2.3-3,0.9-6,0.9-6H340.5z M324.6,274.5c1.5,0.8,2.5,2.3,2.5,4c0,2.5-2.2,4.6-5,4.6s-5-2-5-4.6c0-1.6,0.9-3.1,2.3-3.9
			c-3.5,1.1-6,4.4-6,8.3c0,4.8,3.9,8.7,8.7,8.7s8.7-3.9,8.7-8.7C330.9,278.9,328.2,275.6,324.6,274.5z M512.5,287.4
			c-4.4,0-8.3,2.5-10.2,6.2l-73.8-0.3c6.8-18.5,7.9-29,8-29.7l-0.7,0l0-0.1h0.7c0,0,0,0,0,0l31.1-1.5l-0.3-0.1l27.4-0.3
			c2.6,3.3,6.9,5.1,11.6,4c4.1-0.9,7.6-4.2,8.6-8.4c1.9-7.6-3.9-14.5-11.2-14.5c-4.4,0-8.3,2.5-10.2,6.2l-67.8,0.6
			c-0.6,4.9-1.4,9.5-2.4,13.8c-7,30.2-22.3,44.7-22.3,44.7c-5.1-1.5-0.4-13.6-0.4-13.6s2.1-19.7-13.8-30.8
			c7.1-5.7,5.1-14.9,5.1-14.9s-7.9,6.9-26.8,0c0,0-10.8-3.2-15.7-3.7c0,0-1.3-0.1-3.2-0.1c-1.9,0-3.2,0.1-3.2,0.1
			c-4.9,0.5-15.7,3.7-15.7,3.7c-18.9,6.9-26.8,0-26.8,0s-2,9.2,5.1,14.9c-15.8,11.1-13.8,30.8-13.8,30.8s4.8,12.1-0.4,13.6
			c0,0-16.8-14.5-24.2-44.5l-0.5-2l-2-12l-66.7-0.5c-2-3.7-5.8-6.2-10.2-6.2c-7.3,0-13.1,6.8-11.2,14.5c1,4.1,4.5,7.5,8.6,8.4
			c4.7,1,9-0.8,11.6-4l27.4,0.3l-0.3,0.1l32.8,1.5h-1c0,0,1.1,10.4,8.1,29.5l-73.7,0.3c-2-3.7-5.8-6.2-10.2-6.2
			c-7.3,0-13.1,6.8-11.2,14.5c1,4.1,4.5,7.5,8.6,8.4c4.7,1,9-0.8,11.6-4l80.6,0.9c3.4,7.7,7.6,16.3,12.8,25.7l-64.3,1.4
			c-2-3.7-5.8-6.2-10.2-6.2c-7.4,0-13.1,6.8-11.2,14.5c1,4.1,4.4,7.5,8.6,8.4c4.7,1,9-0.8,11.6-4l74,0.6
			c4.9,7.9,10.4,16.3,16.7,25.1l-53.1,0.4c-2-3.7-5.8-6.2-10.2-6.2c-7.3,0-13.1,6.8-11.2,14.5c1,4.1,4.5,7.5,8.6,8.4
			c4.7,1,9-0.8,11.6-4l64.4,0.7c2.1,2.7,4.2,5.4,6.4,8.2l-9.4,20.4c-4,0-6.4,3.2-6.4,7.2c0,4,3.3,7.3,7.3,7.3c4,0,7.3-3.3,7.3-7.3
			c0-1.8-0.7-3.5-1.8-4.8c1.8-2.8,4.2-5.8,6.9-7.3l-2.8,9.5V450h-4.9v16.8h16.8V450h-4.4V427l9.6,9.5v37.3c-2.4,1.3-4,3.9-4,6.8
			c0,4.3,3.5,7.8,7.8,7.8s7.8-3.5,7.8-7.8c0-2.9-1.6-5.4-3.9-6.8v-37.3l9.6-9.6v22.9l-6,0.1l10.2,17l10.4-17.2l-7.3-0.1v-30.1
			l-2.8-9.9c2.9,1.5,5.4,4.6,7.4,7.6c-1.1,1.3-1.8,2.9-1.8,4.8c0,4,3.3,7.3,7.3,7.3c4,0,7.3-3.3,7.3-7.3c0-4-2.3-7.2-6.4-7.2
			l-9.4-20.4c2.2-2.8,4.3-5.5,6.4-8.2l64.4-0.7c2.6,3.2,6.9,5.1,11.6,4c4.1-0.9,7.6-4.2,8.6-8.4c1.9-7.6-3.9-14.5-11.2-14.5
			c-4.4,0-8.3,2.5-10.2,6.2l-53.1-0.4c6.3-8.8,11.9-17.2,16.7-25.1l74-0.6c2.6,3.2,6.9,5.1,11.6,4c4.1-0.9,7.6-4.2,8.6-8.4
			c1.8-7.6-3.9-14.5-11.2-14.5c-4.4,0-8.3,2.5-10.2,6.2l-64.3-1.4c5.2-9.4,9.4-18,12.8-25.7l80.6-0.9c2.6,3.3,6.9,5.1,11.6,4
			c4.2-0.9,7.6-4.2,8.6-8.4C525.5,294.2,519.8,287.4,512.5,287.4z M497.9,252.3c0.6-2.1,2.3-3.7,4.5-4.2c3.3-0.7,6.5,1.4,7.2,4.7
			c0.2,1.1,0.2,2.2-0.2,3.1c0,0.1,0,0.1,0,0.2c-0.6,2.1-2.3,3.8-4.6,4.3c-3.3,0.7-6.5-1.4-7.2-4.7
			C497.5,254.5,497.6,253.4,497.9,252.3z M193.6,255.5c-0.7,3.3-3.9,5.4-7.2,4.7c-3.3-0.7-5.4-3.9-4.7-7.2c0.7-3.3,3.9-5.4,7.2-4.7
			C192.2,249,194.3,252.2,193.6,255.5z M185.4,300.2c-0.7,3.3-3.9,5.4-7.2,4.7c-3.3-0.7-5.4-3.9-4.7-7.2c0.7-3.3,3.9-5.4,7.2-4.7
			C184.1,293.7,186.1,296.9,185.4,300.2z M213.4,340.8c-0.7,3.3-3.9,5.4-7.2,4.7c-3.3-0.7-5.4-3.9-4.7-7.2c0.7-3.3,3.9-5.3,7.2-4.7
			C212,334.4,214,337.6,213.4,340.8z M249.8,379.6c-0.7,3.3-3.9,5.4-7.2,4.7c-3.3-0.7-5.4-3.9-4.7-7.2c0.7-3.3,3.9-5.3,7.2-4.7
			C248.4,373.1,250.5,376.4,249.8,379.6z M319,422.5c-0.4,2-2.4,3.3-4.4,2.9c-2-0.4-3.3-2.4-2.9-4.5c0.4-2,2.4-3.3,4.4-2.9
			C318.2,418.5,319.5,420.5,319,422.5z M376.1,418.1c2-0.4,4,0.9,4.4,2.9c0.4,2-0.9,4-2.9,4.5c-2,0.4-4-0.9-4.4-2.9
			C372.8,420.5,374.1,418.5,376.1,418.1z M447.1,372.4c3.3-0.7,6.5,1.4,7.2,4.7c0.7,3.3-1.4,6.5-4.7,7.2c-3.3,0.7-6.5-1.4-7.2-4.7
			C441.7,376.4,443.8,373.1,447.1,372.4z M349,380.2l-2.8,3.7l0,0l0,0l-2.8-3.7c0,0-25.6-10.8-37.3-51c3-1,2.5-5,2.4-5.8
			c2.5,9.7,17.5,6.4,17.5,6.4c7-2.5,12.9,1.9,15.4,4.2l-3.7,2.5l8.5,5.9l0,0l0,0l8.5-5.9l-3.6-2.5c2.5-2.3,8.4-6.7,15.4-4.2
			c0,0,15,3.3,17.5-6.4c-0.1,0.7-0.7,4.7,2.4,5.8C374.6,369.4,349,380.2,349,380.2z M364.7,316.8c-7.5,0-14.3-2.9-19.2-7.7
			c-4.9,4.8-11.7,7.7-19.2,7.7c-15,0-27.2-11.9-27.2-26.5s12.2-26.5,27.2-26.5c7.5,0,14.3,2.9,19.2,7.7c4.9-4.8,11.7-7.7,19.2-7.7
			c15,0,27.2,11.9,27.2,26.5S379.7,316.8,364.7,316.8z M483.6,333.7c3.3-0.7,6.5,1.4,7.2,4.7c0.7,3.3-1.4,6.5-4.7,7.2
			c-3.3,0.7-6.5-1.4-7.2-4.7C478.2,337.6,480.3,334.4,483.6,333.7z M514,304.8c-3.3,0.7-6.5-1.4-7.2-4.7c-0.7-3.3,1.4-6.5,4.7-7.2
			c3.3-0.7,6.5,1.4,7.2,4.7C519.3,301,517.2,304.2,514,304.8z M370.6,274.5c1.5,0.8,2.5,2.3,2.5,4c0,2.5-2.2,4.6-5,4.6
			c-2.8,0-5-2-5-4.6c0-1.6,0.9-3.1,2.4-3.9c-3.5,1.1-6,4.4-6,8.3c0,4.8,3.9,8.7,8.7,8.7s8.7-3.9,8.7-8.7
			C376.9,278.9,374.3,275.6,370.6,274.5z M340.5,290.8c0,0-1.4,2.9,1,6h7.5c2.3-3,0.9-6,0.9-6H340.5z M324.6,274.5
			c1.5,0.8,2.5,2.3,2.5,4c0,2.5-2.2,4.6-5,4.6s-5-2-5-4.6c0-1.6,0.9-3.1,2.3-3.9c-3.5,1.1-6,4.4-6,8.3c0,4.8,3.9,8.7,8.7,8.7
			s8.7-3.9,8.7-8.7C330.9,278.9,328.2,275.6,324.6,274.5z"/>
		<linearGradient id="SVGID_18_" gradientUnits="userSpaceOnUse" x1="181.656" y1="254.2206" x2="193.7624" y2="254.2206">
			<stop  offset="4.638738e-02" style="stop-color:#72C0E3"/>
			<stop  offset="5.344639e-02" style="stop-color:#70BEE2"/>
			<stop  offset="0.3022" style="stop-color:#2076B7"/>
			<stop  offset="0.4162" style="stop-color:#005AA6"/>
			<stop  offset="0.5508" style="stop-color:#164396"/>
			<stop  offset="0.7049" style="stop-color:#2A2E87"/>
			<stop  offset="0.8081" style="stop-color:#312782"/>
		</linearGradient>
		<path class="st24" d="M189,248.3c-3.3-0.7-6.5,1.4-7.2,4.7c-0.7,3.3,1.4,6.5,4.7,7.2c3.3,0.7,6.5-1.4,7.2-4.7
			C194.3,252.2,192.2,249,189,248.3z"/>
		<linearGradient id="SVGID_19_" gradientUnits="userSpaceOnUse" x1="506.6719" y1="298.9308" x2="518.7716" y2="298.9308">
			<stop  offset="4.638738e-02" style="stop-color:#72C0E3"/>
			<stop  offset="5.344639e-02" style="stop-color:#70BEE2"/>
			<stop  offset="0.3022" style="stop-color:#2076B7"/>
			<stop  offset="0.4162" style="stop-color:#005AA6"/>
			<stop  offset="0.5508" style="stop-color:#164396"/>
			<stop  offset="0.7049" style="stop-color:#2A2E87"/>
			<stop  offset="0.8081" style="stop-color:#312782"/>
		</linearGradient>
		<path class="st25" d="M518.6,297.7c-0.7-3.3-3.9-5.4-7.2-4.7c-3.3,0.7-5.4,3.9-4.7,7.2c0.7,3.3,3.9,5.4,7.2,4.7
			C517.2,304.2,519.3,301,518.6,297.7z"/>
		<linearGradient id="SVGID_20_" gradientUnits="userSpaceOnUse" x1="497.5642" y1="256.4114" x2="509.4336" y2="256.4114">
			<stop  offset="4.638738e-02" style="stop-color:#72C0E3"/>
			<stop  offset="5.344639e-02" style="stop-color:#70BEE2"/>
			<stop  offset="0.3022" style="stop-color:#2076B7"/>
			<stop  offset="0.4162" style="stop-color:#005AA6"/>
			<stop  offset="0.5508" style="stop-color:#164396"/>
			<stop  offset="0.7049" style="stop-color:#2A2E87"/>
			<stop  offset="0.8081" style="stop-color:#312782"/>
		</linearGradient>
		<path class="st26" d="M509.4,256.1c-0.7,1.9-2.3,3.4-4.5,3.9c-3.3,0.7-6.5-1.4-7.2-4.7c-0.2-1-0.2-2,0.1-3c-0.4,1-0.5,2.2-0.3,3.3
			c0.7,3.3,3.9,5.4,7.2,4.7C507.1,259.9,508.8,258.2,509.4,256.1z"/>
		<linearGradient id="SVGID_21_" gradientUnits="userSpaceOnUse" x1="478.7649" y1="339.5923" x2="490.8712" y2="339.5923">
			<stop  offset="4.638738e-02" style="stop-color:#72C0E3"/>
			<stop  offset="5.344639e-02" style="stop-color:#70BEE2"/>
			<stop  offset="0.3022" style="stop-color:#2076B7"/>
			<stop  offset="0.4162" style="stop-color:#005AA6"/>
			<stop  offset="0.5508" style="stop-color:#164396"/>
			<stop  offset="0.7049" style="stop-color:#2A2E87"/>
			<stop  offset="0.8081" style="stop-color:#312782"/>
		</linearGradient>
		<path class="st27" d="M483.6,333.7c-3.3,0.7-5.3,3.9-4.7,7.2c0.7,3.3,3.9,5.4,7.2,4.7c3.3-0.7,5.4-3.9,4.7-7.2
			C490,335.1,486.8,333,483.6,333.7z"/>
		<linearGradient id="SVGID_22_" gradientUnits="userSpaceOnUse" x1="442.2919" y1="378.3658" x2="454.3916" y2="378.3658">
			<stop  offset="4.638738e-02" style="stop-color:#72C0E3"/>
			<stop  offset="5.344639e-02" style="stop-color:#70BEE2"/>
			<stop  offset="0.3022" style="stop-color:#2076B7"/>
			<stop  offset="0.4162" style="stop-color:#005AA6"/>
			<stop  offset="0.5508" style="stop-color:#164396"/>
			<stop  offset="0.7049" style="stop-color:#2A2E87"/>
			<stop  offset="0.8081" style="stop-color:#312782"/>
		</linearGradient>
		<path class="st28" d="M447.1,372.4c-3.3,0.7-5.4,3.9-4.7,7.2c0.7,3.3,3.9,5.4,7.2,4.7c3.3-0.7,5.4-3.9,4.7-7.2
			C453.6,373.8,450.4,371.8,447.1,372.4z"/>
		<linearGradient id="SVGID_23_" gradientUnits="userSpaceOnUse" x1="373.1309" y1="421.7322" x2="380.6192" y2="421.7322">
			<stop  offset="4.638738e-02" style="stop-color:#72C0E3"/>
			<stop  offset="5.344639e-02" style="stop-color:#70BEE2"/>
			<stop  offset="0.3022" style="stop-color:#2076B7"/>
			<stop  offset="0.4162" style="stop-color:#005AA6"/>
			<stop  offset="0.5508" style="stop-color:#164396"/>
			<stop  offset="0.7049" style="stop-color:#2A2E87"/>
			<stop  offset="0.8081" style="stop-color:#312782"/>
		</linearGradient>
		<path class="st29" d="M376.1,418.1c-2,0.4-3.3,2.4-2.9,4.5c0.4,2,2.4,3.3,4.4,2.9c2-0.4,3.3-2.4,2.9-4.5
			C380.1,418.9,378.1,417.6,376.1,418.1z"/>
		<linearGradient id="SVGID_24_" gradientUnits="userSpaceOnUse" x1="338.9923" y1="302.9872" x2="353.3808" y2="302.9872">
			<stop  offset="4.638738e-02" style="stop-color:#72C0E3"/>
			<stop  offset="5.344639e-02" style="stop-color:#70BEE2"/>
			<stop  offset="0.3022" style="stop-color:#2076B7"/>
			<stop  offset="0.4162" style="stop-color:#005AA6"/>
			<stop  offset="0.5508" style="stop-color:#164396"/>
			<stop  offset="0.7049" style="stop-color:#2A2E87"/>
			<stop  offset="0.8081" style="stop-color:#312782"/>
		</linearGradient>
		<path class="st30" d="M346.2,309.2C346.2,309.2,346.2,309.2,346.2,309.2C346.2,309.2,346.2,309.2,346.2,309.2
			c-10.1-5.2-6.6-12.5-6.6-12.5h13.2C352.8,296.7,356.3,304.1,346.2,309.2z"/>
		<linearGradient id="SVGID_25_" gradientUnits="userSpaceOnUse" x1="311.6309" y1="421.7322" x2="319.1162" y2="421.7322">
			<stop  offset="4.638738e-02" style="stop-color:#72C0E3"/>
			<stop  offset="5.344639e-02" style="stop-color:#70BEE2"/>
			<stop  offset="0.3022" style="stop-color:#2076B7"/>
			<stop  offset="0.4162" style="stop-color:#005AA6"/>
			<stop  offset="0.5508" style="stop-color:#164396"/>
			<stop  offset="0.7049" style="stop-color:#2A2E87"/>
			<stop  offset="0.8081" style="stop-color:#312782"/>
		</linearGradient>
		<path class="st31" d="M316.2,418.1c-2-0.4-4,0.9-4.4,2.9c-0.4,2,0.9,4,2.9,4.5c2,0.4,4-0.9,4.4-2.9
			C319.5,420.5,318.2,418.5,316.2,418.1z"/>
		<linearGradient id="SVGID_26_" gradientUnits="userSpaceOnUse" x1="237.8494" y1="378.3658" x2="249.9557" y2="378.3658">
			<stop  offset="4.638738e-02" style="stop-color:#72C0E3"/>
			<stop  offset="5.344639e-02" style="stop-color:#70BEE2"/>
			<stop  offset="0.3022" style="stop-color:#2076B7"/>
			<stop  offset="0.4162" style="stop-color:#005AA6"/>
			<stop  offset="0.5508" style="stop-color:#164396"/>
			<stop  offset="0.7049" style="stop-color:#2A2E87"/>
			<stop  offset="0.8081" style="stop-color:#312782"/>
		</linearGradient>
		<path class="st32" d="M245.2,372.4c-3.3-0.7-6.5,1.4-7.2,4.7c-0.7,3.3,1.4,6.5,4.7,7.2c3.3,0.7,6.5-1.4,7.2-4.7
			C250.5,376.4,248.4,373.1,245.2,372.4z"/>
		<linearGradient id="SVGID_27_" gradientUnits="userSpaceOnUse" x1="201.379" y1="339.5923" x2="213.4853" y2="339.5923">
			<stop  offset="4.638738e-02" style="stop-color:#72C0E3"/>
			<stop  offset="5.344639e-02" style="stop-color:#70BEE2"/>
			<stop  offset="0.3022" style="stop-color:#2076B7"/>
			<stop  offset="0.4162" style="stop-color:#005AA6"/>
			<stop  offset="0.5508" style="stop-color:#164396"/>
			<stop  offset="0.7049" style="stop-color:#2A2E87"/>
			<stop  offset="0.8081" style="stop-color:#312782"/>
		</linearGradient>
		<path class="st33" d="M208.7,333.7c-3.3-0.7-6.5,1.4-7.2,4.7c-0.7,3.3,1.4,6.5,4.7,7.2c3.3,0.7,6.5-1.4,7.2-4.7
			C214,337.6,212,334.4,208.7,333.7z"/>
		<linearGradient id="SVGID_28_" gradientUnits="userSpaceOnUse" x1="181.656" y1="254.2206" x2="193.7624" y2="254.2206">
			<stop  offset="4.638738e-02" style="stop-color:#72C0E3"/>
			<stop  offset="5.344639e-02" style="stop-color:#70BEE2"/>
			<stop  offset="0.3022" style="stop-color:#2076B7"/>
			<stop  offset="0.4162" style="stop-color:#005AA6"/>
			<stop  offset="0.5508" style="stop-color:#164396"/>
			<stop  offset="0.7049" style="stop-color:#2A2E87"/>
			<stop  offset="0.8081" style="stop-color:#312782"/>
		</linearGradient>
		<path class="st34" d="M189,248.3c-3.3-0.7-6.5,1.4-7.2,4.7c-0.7,3.3,1.4,6.5,4.7,7.2c3.3,0.7,6.5-1.4,7.2-4.7
			C194.3,252.2,192.2,249,189,248.3z"/>
		<g>
			<path class="st2" d="M213.4,340.8c-0.7,3.3-3.9,5.4-7.2,4.7c-3.3-0.7-5.4-3.9-4.7-7.2c0.7-3.3,3.9-5.3,7.2-4.7
				C212,334.4,214,337.6,213.4,340.8z"/>
		</g>
		<g>
			<path class="st2" d="M249.8,379.6c-0.7,3.3-3.9,5.4-7.2,4.7c-3.3-0.7-5.4-3.9-4.7-7.2c0.7-3.3,3.9-5.3,7.2-4.7
				C248.4,373.1,250.5,376.4,249.8,379.6z"/>
		</g>
		<g>
			<path class="st2" d="M319,422.5c-0.4,2-2.4,3.3-4.4,2.9c-2-0.4-3.3-2.4-2.9-4.5c0.4-2,2.4-3.3,4.4-2.9
				C318.2,418.5,319.5,420.5,319,422.5z"/>
		</g>
		<g>
			<path class="st2" d="M377.7,425.4c-2,0.4-4-0.9-4.4-2.9c-0.4-2,0.9-4,2.9-4.5c2-0.4,4,0.9,4.4,2.9C381,423,379.7,425,377.7,425.4
				z"/>
		</g>
		<g>
			<path class="st2" d="M449.6,384.3c-3.3,0.7-6.5-1.4-7.2-4.7c-0.7-3.3,1.4-6.5,4.7-7.2c3.3-0.7,6.5,1.4,7.2,4.7
				C455,380.4,452.9,383.6,449.6,384.3z"/>
		</g>
		<g>
			<path class="st2" d="M486.1,345.5c-3.3,0.7-6.5-1.4-7.2-4.7c-0.7-3.3,1.4-6.5,4.7-7.2c3.3-0.7,6.5,1.4,7.2,4.7
				C491.4,341.6,489.3,344.8,486.1,345.5z"/>
		</g>
		<g>
			<path class="st2" d="M514,304.8c-3.3,0.7-6.5-1.4-7.2-4.7c-0.7-3.3,1.4-6.5,4.7-7.2c3.3-0.7,6.5,1.4,7.2,4.7
				C519.3,301,517.2,304.2,514,304.8z"/>
		</g>
		<g>
			<path class="st2" d="M509.5,255.9c0,0.1,0,0.1,0,0.2c-0.6,2.1-2.3,3.8-4.6,4.3c-3.3,0.7-6.5-1.4-7.2-4.7
				c-0.2-1.2-0.1-2.3,0.3-3.3c0.7-1.9,2.3-3.4,4.4-3.8c3.3-0.7,6.5,1.4,7.2,4.7C509.7,254.1,509.7,255.1,509.5,255.9z"/>
		</g>
		<g>
			<linearGradient id="SVGID_29_" gradientUnits="userSpaceOnUse" x1="181.656" y1="254.2206" x2="193.7624" y2="254.2206">
				<stop  offset="4.638738e-02" style="stop-color:#72C0E3"/>
				<stop  offset="5.344639e-02" style="stop-color:#70BEE2"/>
				<stop  offset="0.3022" style="stop-color:#2076B7"/>
				<stop  offset="0.4162" style="stop-color:#005AA6"/>
				<stop  offset="0.5508" style="stop-color:#164396"/>
				<stop  offset="0.7049" style="stop-color:#2A2E87"/>
				<stop  offset="0.8081" style="stop-color:#312782"/>
			</linearGradient>
			<path class="st35" d="M193.6,255.5c-0.7,3.3-3.9,5.4-7.2,4.7c-3.3-0.7-5.4-3.9-4.7-7.2c0.7-3.3,3.9-5.4,7.2-4.7
				C192.2,249,194.3,252.2,193.6,255.5z"/>
			<g>
				<path class="st2" d="M193.6,255.5c-0.7,3.3-3.9,5.4-7.2,4.7c-3.3-0.7-5.4-3.9-4.7-7.2c0.7-3.3,3.9-5.4,7.2-4.7
					C192.2,249,194.3,252.2,193.6,255.5z"/>
			</g>
		</g>
		<g>
			<linearGradient id="SVGID_30_" gradientUnits="userSpaceOnUse" x1="435.7836" y1="263.5472" x2="436.4936" y2="263.5472">
				<stop  offset="4.638738e-02" style="stop-color:#72C0E3"/>
				<stop  offset="5.344639e-02" style="stop-color:#70BEE2"/>
				<stop  offset="0.3022" style="stop-color:#2076B7"/>
				<stop  offset="0.4162" style="stop-color:#005AA6"/>
				<stop  offset="0.5508" style="stop-color:#164396"/>
				<stop  offset="0.7049" style="stop-color:#2A2E87"/>
				<stop  offset="0.8081" style="stop-color:#312782"/>
			</linearGradient>
			<path class="st36" d="M436.5,263.5C436.5,263.5,436.5,263.5,436.5,263.5l-0.7,0.1l0-0.1H436.5z"/>
			<linearGradient id="SVGID_31_" gradientUnits="userSpaceOnUse" x1="497.6807" y1="254.0558" x2="509.7788" y2="254.0558">
				<stop  offset="4.638738e-02" style="stop-color:#72C0E3"/>
				<stop  offset="5.344639e-02" style="stop-color:#70BEE2"/>
				<stop  offset="0.3022" style="stop-color:#2076B7"/>
				<stop  offset="0.4162" style="stop-color:#005AA6"/>
				<stop  offset="0.5508" style="stop-color:#164396"/>
				<stop  offset="0.7049" style="stop-color:#2A2E87"/>
				<stop  offset="0.8081" style="stop-color:#312782"/>
			</linearGradient>
			<path class="st37" d="M509.5,255.9c0,0.1,0,0.1,0,0.2c-0.7,1.9-2.3,3.4-4.5,3.9c-3.3,0.7-6.5-1.4-7.2-4.7c-0.2-1-0.2-2,0.1-3
				c0.6-2.1,2.3-3.7,4.5-4.2c3.3-0.7,6.5,1.4,7.2,4.7C509.9,253.9,509.8,255,509.5,255.9z"/>
			<g>
				<path class="st2" d="M509.5,255.9c0,0.1,0,0.1,0,0.2c-0.7,1.9-2.3,3.4-4.5,3.9c-3.3,0.7-6.5-1.4-7.2-4.7c-0.2-1-0.2-2,0.1-3
					c0.6-2.1,2.3-3.7,4.5-4.2c3.3-0.7,6.5,1.4,7.2,4.7C509.9,253.9,509.8,255,509.5,255.9z"/>
			</g>
		</g>
		<g>
			<path class="st2" d="M364.7,261.8c-7.5,0-14.3,3.1-19.2,8.1c-4.9-5-11.7-8.1-19.2-8.1c-15,0-27.2,12.5-27.2,28s12.2,28,27.2,28
				c7.5,0,14.3-3.1,19.2-8.1c4.9,5,11.7,8.1,19.2,8.1c15,0,27.2-12.5,27.2-28S379.7,261.8,364.7,261.8z"/>
		</g>
		<g>
			<path class="st2" d="M322.2,291.6c-4.8,0-8.7-3.9-8.7-8.7c0-3.9,2.5-7.1,6-8.3c-1.4,0.8-2.3,2.2-2.3,3.9c0,2.5,2.2,4.6,5,4.6
				s5-2,5-4.6c0-1.7-1-3.2-2.5-4c3.6,1,6.3,4.4,6.3,8.4C330.9,287.7,327,291.6,322.2,291.6z"/>
		</g>
		<g>
			<path class="st2" d="M346.2,309.2C346.2,309.2,346.2,309.2,346.2,309.2C346.2,309.2,346.2,309.2,346.2,309.2
				c-10.1-5.2-6.6-12.5-6.6-12.5h1.9c-2.3-3-1-6-1-6h9.4c0,0,1.4,2.9-0.9,6h3.8C352.8,296.7,356.3,304.1,346.2,309.2z"/>
		</g>
		<g>
			<path class="st2" d="M368.2,291.6c-4.8,0-8.7-3.9-8.7-8.7c0-3.9,2.5-7.1,6-8.3c-1.4,0.8-2.4,2.2-2.4,3.9c0,2.5,2.2,4.6,5,4.6
				c2.8,0,5-2,5-4.6c0-1.7-1-3.2-2.5-4c3.6,1,6.3,4.4,6.3,8.4C376.9,287.7,373,291.6,368.2,291.6z"/>
		</g>
		<g>
			<path class="st2" d="M330.9,282.9c0,4.8-3.9,8.7-8.7,8.7s-8.7-3.9-8.7-8.7c0-3.9,2.5-7.1,6-8.3c-1.4,0.8-2.3,2.2-2.3,3.9
				c0,2.5,2.2,4.6,5,4.6s5-2,5-4.6c0-1.7-1-3.2-2.5-4C328.2,275.6,330.9,278.9,330.9,282.9z"/>
		</g>
		<g>
			<path class="st2" d="M376.9,282.9c0,4.8-3.9,8.7-8.7,8.7s-8.7-3.9-8.7-8.7c0-3.9,2.5-7.1,6-8.3c-1.4,0.8-2.4,2.2-2.4,3.9
				c0,2.5,2.2,4.6,5,4.6c2.8,0,5-2,5-4.6c0-1.7-1-3.2-2.5-4C374.3,275.6,376.9,278.9,376.9,282.9z"/>
		</g>
		<g>
			<path class="st38" d="M345.2,301.3c-1.5-0.8-2.7-1.7-3.5-2.8c-1.9-2.4-1.2-4.7-1-5.4h9c0.3,0.7,0.9,3-1,5.4
				C348,299.5,346.8,300.4,345.2,301.3L345.2,301.3L345.2,301.3z"/>
			<path class="st38" d="M349.5,293.5c0.2,0.8,0.6,2.8-1,4.8c-0.7,0.9-1.7,1.8-3.1,2.5l0,0l-0.1,0.1c-1.4-0.8-2.5-1.6-3.2-2.6
				c-1.6-2-1.3-4-1-4.8H349.5 M350,292.8h-9.4c0,0-1.4,2.9,1,6c0.8,1,2,2,3.8,2.9c0,0,0,0,0,0s0,0,0,0c1.8-0.9,3-1.9,3.8-2.9
				C351.4,295.7,350,292.8,350,292.8L350,292.8z"/>
		</g>
		<g>
			<path class="st39" d="M334.3,287.4c0,0-8.3,4.2-15.3,0c0,0-7-2.4-5.6-14.5C313.5,273,329.4,272.8,334.3,287.4z"/>
			<g>
				<ellipse class="st2" cx="324.6" cy="279.5" rx="4.9" ry="3.6"/>
			</g>
		</g>
		<g>
			<path class="st39" d="M356.1,287.4c0,0,8.3,4.2,15.3,0c0,0,7-2.4,5.6-14.5C376.9,273,361,272.8,356.1,287.4z"/>
			<g>
				<ellipse class="st2" cx="365.8" cy="279.5" rx="4.9" ry="3.6"/>
			</g>
		</g>
	</g>
	<g class="st1">
		<g>
			<g>
				<line class="st3" x1="710.6" y1="314.9" x2="710.6" y2="314.9"/>
				<path class="st2" d="M722.5,367.4"/>
				<path class="st2" d="M731.5,292.8"/>
			</g>
			<linearGradient id="SVGID_32_" gradientUnits="userSpaceOnUse" x1="598.7019" y1="360.6999" x2="790.7065" y2="353.232">
				<stop  offset="0.3547" style="stop-color:#72C0E3"/>
				<stop  offset="0.5855" style="stop-color:#009EE2"/>
				<stop  offset="0.7337" style="stop-color:#312782"/>
			</linearGradient>
			<path class="st40" d="M739.5,289.8v83.8c0,12.1-3.3,23.5-9,33.4c-12.3,21.3-35.9,35.9-63.2,36.7c48.9-1.7,52.7-56.3,52.7-56.3
				V270.2C730.8,270.2,739.5,279,739.5,289.8z"/>
			<linearGradient id="SVGID_33_" gradientUnits="userSpaceOnUse" x1="566.2159" y1="366.1661" x2="859.3771" y2="345.0818">
				<stop  offset="5.865922e-02" style="stop-color:#72C0E3"/>
				<stop  offset="0.2704" style="stop-color:#009EE2"/>
				<stop  offset="0.5169" style="stop-color:#312782"/>
			</linearGradient>
			<path class="st41" d="M720,270.2v117.2c0,0-3.7,54.6-52.7,56.3c-0.3,0-0.7,0-1,0c-0.4,0-0.9,0-1.3,0c-14.2,0-27.5-3.8-38.9-10.3
				c83.8,0,74.4-60,74.4-60v-82.3c0-0.5-0.1-1-0.1-1.5C700.4,279,709.2,270.2,720,270.2z"/>
			<linearGradient id="SVGID_34_" gradientUnits="userSpaceOnUse" x1="590.363" y1="407.4138" x2="739.5348" y2="407.4138">
				<stop  offset="0" style="stop-color:#FFFFFF"/>
				<stop  offset="1" style="stop-color:#F29100"/>
			</linearGradient>
			<path class="st42" d="M647.3,407.2c5.4,0.7,11.3,0.7,17.7-0.2C658.3,408,652.4,408,647.3,407.2z"/>
			<linearGradient id="SVGID_35_" gradientUnits="userSpaceOnUse" x1="646.8857" y1="279.7299" x2="627.9476" y2="397.3601">
				<stop  offset="4.638738e-02" style="stop-color:#72C0E3"/>
				<stop  offset="5.344639e-02" style="stop-color:#70BEE2"/>
				<stop  offset="0.3022" style="stop-color:#2076B7"/>
				<stop  offset="0.4162" style="stop-color:#005AA6"/>
				<stop  offset="0.5508" style="stop-color:#164396"/>
				<stop  offset="0.7049" style="stop-color:#2A2E87"/>
				<stop  offset="0.8081" style="stop-color:#312782"/>
			</linearGradient>
			<path class="st43" d="M629.4,373.6c0,18.5,15.9,33.4,35.5,33.4c-6.4,0.8-12.3,1.3-17.8,0.6c0,0,0-0.5,0-0.5
				c-37.3-5.1-37.3-53.9-37.3-53.9v-83.1c10.8,0,19.6,8.8,19.6,19.6V373.6z"/>
			<linearGradient id="SVGID_36_" gradientUnits="userSpaceOnUse" x1="590.363" y1="395.3857" x2="739.5348" y2="395.3857">
				<stop  offset="7.326451e-02" style="stop-color:#72C0E3"/>
				<stop  offset="0.3212" style="stop-color:#006CB5"/>
				<stop  offset="0.5901" style="stop-color:#312782"/>
			</linearGradient>
			<path class="st44" d="M590.4,357.2c1.1,3.3,16.1,45,56.8,50c0,0,0.1,0,0.1,0c5.1,0.8,11,0.8,17.7-0.2c19.6,0,35.5-15,35.5-33.4
				c0,0,9.4,60-74.4,60c-11.2-6.5-20.5-15.6-26.7-26.5c-5.7-9.9-9-21.3-9-33.4V357.2z"/>
			<linearGradient id="SVGID_37_" gradientUnits="userSpaceOnUse" x1="608.605" y1="339.1002" x2="637.9745" y2="426.806">
				<stop  offset="0" style="stop-color:#72C0E3"/>
				<stop  offset="0.3156" style="stop-color:#0066B1"/>
				<stop  offset="0.5484" style="stop-color:#233990"/>
				<stop  offset="0.6711" style="stop-color:#312782"/>
			</linearGradient>
			<path class="st45" d="M647.2,407.2c-40.8-4.9-55.7-46.7-56.8-50v-65.9c0-0.5-0.1-1-0.1-1.6c0-10.8,8.8-19.6,19.6-19.6v83.1
				C609.9,353.3,609.9,401.2,647.2,407.2z"/>
			<g>
				<path class="st3" d="M666.3,443.8c-0.4,0-0.9,0-1.3,0c-14.2,0-27.5-3.8-38.9-10.3c-11.2-6.5-20.5-15.6-26.7-26.5
					c-5.7-9.9-9-21.3-9-33.4v-16.4c1.1,3.3,16.1,45,56.8,50c-37.3-6-37.3-53.9-37.3-53.9v-83.1c10.8,0,19.6,8.8,19.6,19.6v83.8
					c0,18.5,15.9,33.4,35.5,33.4c19.6,0,35.5-15,35.5-33.4v-82.3c0-0.5-0.1-1-0.1-1.5c0-10.8,8.8-19.6,19.6-19.6
					c10.8,0,19.6,8.8,19.6,19.6v83.8c0,12.1-3.3,23.5-9,33.4c-12.3,21.3-35.9,35.9-63.2,36.7"/>
			</g>
			<path class="st3" d="M720,270.2v117.2c0,0-3.7,54.6-52.7,56.3c-0.3,0-0.7,0-1,0c-0.4,0-0.9,0-1.3,0"/>
			<path class="st3" d="M700.5,373.6c0,0,9.4,60-74.4,60"/>
			<path class="st3" d="M647.3,407.2c5.4,0.7,11.3,0.7,17.7-0.2"/>
			<path class="st3" d="M664.9,407c-6.7,1-12.5,1-17.7,0.2c0,0-0.1,0-0.1,0"/>
			<path class="st2" d="M729.2,321.9v-13.6l18.9-18.9L720,261.2l-28.1,28.1l18.9,18.9v13.5c-1.2,0.6-2,1.8-2,3.1
				c0,1.9,1.5,3.5,3.5,3.5s3.5-1.6,3.5-3.5c0-1.3-0.7-2.4-1.7-3v-10.4l4.2,4.2v16.5c-1,0.6-1.7,1.7-1.7,3c0,1.9,1.5,3.5,3.5,3.5
				c1.9,0,3.5-1.5,3.5-3.5c0-1.3-0.7-2.4-1.7-3v-16.5l4.2-4.2v10.3c-1.1,0.6-1.8,1.7-1.8,3c0,1.9,1.5,3.5,3.5,3.5s3.5-1.6,3.5-3.5
				C731,323.6,730.3,322.4,729.2,321.9z M720,301.1l-15.7-15.7l15.7-15.7l15.7,15.7L720,301.1z"/>
		</g>
		<rect x="764.2" y="274.6" class="st3" width="774.8" height="217.8"/>
		<text transform="matrix(1 0 0 1 764.1799 423.708)" class="st10 st11 st12">DATA</text>
	</g>
</g>
<g id="Ebene_3">
	<g>
		<g>
			<g>
				<line class="st3" x1="510.6" y1="314.8" x2="510.6" y2="314.8"/>
				<path class="st2" d="M522.5,367.4"/>
				<path class="st2" d="M531.5,292.7"/>
			</g>
			<linearGradient id="SVGID_38_" gradientUnits="userSpaceOnUse" x1="398.7019" y1="360.6573" x2="590.7065" y2="353.1894">
				<stop  offset="0.3547" style="stop-color:#72C0E3"/>
				<stop  offset="0.5855" style="stop-color:#009EE2"/>
				<stop  offset="0.7337" style="stop-color:#312782"/>
			</linearGradient>
			<path class="st46" d="M539.5,289.8v83.8c0,12.1-3.3,23.5-9,33.4c-12.3,21.3-35.9,35.9-63.2,36.7c48.9-1.7,52.7-56.3,52.7-56.3
				V270.2C530.8,270.2,539.5,279,539.5,289.8z"/>
			<linearGradient id="SVGID_39_" gradientUnits="userSpaceOnUse" x1="366.2159" y1="366.1235" x2="659.3771" y2="345.0392">
				<stop  offset="5.865922e-02" style="stop-color:#72C0E3"/>
				<stop  offset="0.2704" style="stop-color:#009EE2"/>
				<stop  offset="0.5169" style="stop-color:#312782"/>
			</linearGradient>
			<path class="st47" d="M520,270.2v117.2c0,0-3.7,54.6-52.7,56.3c-0.3,0-0.7,0-1,0c-0.4,0-0.9,0-1.3,0c-14.2,0-27.5-3.8-38.9-10.3
				c83.8,0,74.4-60,74.4-60v-82.3c0-0.5-0.1-1-0.1-1.5C500.4,279,509.2,270.2,520,270.2z"/>
			<linearGradient id="SVGID_40_" gradientUnits="userSpaceOnUse" x1="390.363" y1="407.3711" x2="539.5348" y2="407.3711">
				<stop  offset="0" style="stop-color:#FFFFFF"/>
				<stop  offset="1" style="stop-color:#F29100"/>
			</linearGradient>
			<path class="st48" d="M447.3,407.2c5.4,0.7,11.3,0.7,17.7-0.2C458.3,408,452.4,408,447.3,407.2z"/>
			<linearGradient id="SVGID_41_" gradientUnits="userSpaceOnUse" x1="446.8857" y1="279.6873" x2="427.9476" y2="397.3174">
				<stop  offset="4.638738e-02" style="stop-color:#72C0E3"/>
				<stop  offset="5.344639e-02" style="stop-color:#70BEE2"/>
				<stop  offset="0.3022" style="stop-color:#2076B7"/>
				<stop  offset="0.4162" style="stop-color:#005AA6"/>
				<stop  offset="0.5508" style="stop-color:#164396"/>
				<stop  offset="0.7049" style="stop-color:#2A2E87"/>
				<stop  offset="0.8081" style="stop-color:#312782"/>
			</linearGradient>
			<path class="st49" d="M429.4,373.5c0,18.5,15.9,33.4,35.5,33.4c-6.4,0.8-12.3,1.3-17.8,0.6c0,0,0-0.5,0-0.5
				c-37.3-5.1-37.3-53.9-37.3-53.9v-83.1c10.8,0,19.6,8.8,19.6,19.6V373.5z"/>
			<linearGradient id="SVGID_42_" gradientUnits="userSpaceOnUse" x1="390.363" y1="395.3431" x2="539.5348" y2="395.3431">
				<stop  offset="7.326451e-02" style="stop-color:#72C0E3"/>
				<stop  offset="0.3212" style="stop-color:#006CB5"/>
				<stop  offset="0.5901" style="stop-color:#312782"/>
			</linearGradient>
			<path class="st50" d="M390.4,357.2c1.1,3.3,16.1,45,56.8,50c0,0,0.1,0,0.1,0c5.1,0.8,11,0.8,17.7-0.2c19.6,0,35.5-15,35.5-33.4
				c0,0,9.4,60-74.4,60c-11.2-6.5-20.5-15.6-26.7-26.5c-5.7-9.9-9-21.3-9-33.4V357.2z"/>
			<linearGradient id="SVGID_43_" gradientUnits="userSpaceOnUse" x1="408.605" y1="339.0576" x2="437.9745" y2="426.7633">
				<stop  offset="0" style="stop-color:#72C0E3"/>
				<stop  offset="0.3156" style="stop-color:#0066B1"/>
				<stop  offset="0.5484" style="stop-color:#233990"/>
				<stop  offset="0.6711" style="stop-color:#312782"/>
			</linearGradient>
			<path class="st51" d="M447.2,407.1c-40.8-4.9-55.7-46.7-56.8-50v-65.9c0-0.5-0.1-1-0.1-1.6c0-10.8,8.8-19.6,19.6-19.6v83.1
				C409.9,353.3,409.9,401.2,447.2,407.1z"/>
			<g>
				<path class="st3" d="M466.3,443.8c-0.4,0-0.9,0-1.3,0c-14.2,0-27.5-3.8-38.9-10.3c-11.2-6.5-20.5-15.6-26.7-26.5
					c-5.7-9.9-9-21.3-9-33.4v-16.4c1.1,3.3,16.1,45,56.8,50c-37.3-6-37.3-53.9-37.3-53.9v-83.1c10.8,0,19.6,8.8,19.6,19.6v83.8
					c0,18.5,15.9,33.4,35.5,33.4s35.5-15,35.5-33.4v-82.3c0-0.5-0.1-1-0.1-1.5c0-10.8,8.8-19.6,19.6-19.6c10.8,0,19.6,8.8,19.6,19.6
					v83.8c0,12.1-3.3,23.5-9,33.4c-12.3,21.3-35.9,35.9-63.2,36.7"/>
			</g>
			<path class="st3" d="M520,270.2v117.2c0,0-3.7,54.6-52.7,56.3c-0.3,0-0.7,0-1,0c-0.4,0-0.9,0-1.3,0"/>
			<path class="st3" d="M500.5,373.5c0,0,9.4,60-74.4,60"/>
			<path class="st3" d="M447.3,407.2c5.4,0.7,11.3,0.7,17.7-0.2"/>
			<path class="st3" d="M464.9,407c-6.7,1-12.5,1-17.7,0.2c0,0-0.1,0-0.1,0"/>
			<path class="st2" d="M529.2,321.8v-13.6l18.9-18.9L520,261.2l-28.1,28.1l18.9,18.9v13.5c-1.2,0.6-2,1.8-2,3.1
				c0,1.9,1.5,3.5,3.5,3.5s3.5-1.6,3.5-3.5c0-1.3-0.7-2.4-1.7-3v-10.4l4.2,4.2v16.5c-1,0.6-1.7,1.7-1.7,3c0,1.9,1.5,3.5,3.5,3.5
				c1.9,0,3.5-1.5,3.5-3.5c0-1.3-0.7-2.4-1.7-3v-16.5l4.2-4.2v10.3c-1.1,0.6-1.8,1.7-1.8,3c0,1.9,1.5,3.5,3.5,3.5s3.5-1.6,3.5-3.5
				C531,323.5,530.3,322.4,529.2,321.8z M520,301.1l-15.7-15.7l15.7-15.7l15.7,15.7L520,301.1z"/>
		</g>
		<rect x="564.2" y="274.6" class="st3" width="774.8" height="217.8"/>
		<text transform="matrix(1 0 0 1 564.1799 423.6654)" class="st10 st11 st12">DATA</text>
	</g>
</g>
<g id="Ebene_4" class="st0">
	<g class="st1">
		<linearGradient id="SVGID_44_" gradientUnits="userSpaceOnUse" x1="168.2137" y1="370.6496" x2="524.0334" y2="370.6496">
			<stop  offset="4.638738e-02" style="stop-color:#72C0E3"/>
			<stop  offset="5.344639e-02" style="stop-color:#70BEE2"/>
			<stop  offset="0.3022" style="stop-color:#2076B7"/>
			<stop  offset="0.4162" style="stop-color:#005AA6"/>
			<stop  offset="0.5508" style="stop-color:#164396"/>
			<stop  offset="0.7049" style="stop-color:#2A2E87"/>
			<stop  offset="0.8081" style="stop-color:#312782"/>
		</linearGradient>
		<path class="st52" d="M324.6,279.5c1.5,0.8,2.5,2.3,2.5,4c0,2.5-2.2,4.6-5,4.6s-5-2-5-4.6c0-1.6,0.9-3.1,2.3-3.9
			c-3.5,1.1-6,4.4-6,8.3c0,4.8,3.9,8.7,8.7,8.7s8.7-3.9,8.7-8.7C330.9,283.9,328.2,280.5,324.6,279.5z M350,295.7h-9.4
			c0,0-1.4,2.9,1,6h7.5C351.4,298.7,350,295.7,350,295.7z M370.6,279.5c1.5,0.8,2.5,2.3,2.5,4c0,2.5-2.2,4.6-5,4.6c-2.8,0-5-2-5-4.6
			c0-1.6,0.9-3.1,2.4-3.9c-3.5,1.1-6,4.4-6,8.3c0,4.8,3.9,8.7,8.7,8.7s8.7-3.9,8.7-8.7C376.9,283.9,374.3,280.5,370.6,279.5z
			 M370.6,279.5c1.5,0.8,2.5,2.3,2.5,4c0,2.5-2.2,4.6-5,4.6c-2.8,0-5-2-5-4.6c0-1.6,0.9-3.1,2.4-3.9c-3.5,1.1-6,4.4-6,8.3
			c0,4.8,3.9,8.7,8.7,8.7s8.7-3.9,8.7-8.7C376.9,283.9,374.3,280.5,370.6,279.5z M340.5,295.7c0,0-1.4,2.9,1,6h7.5
			c2.3-3,0.9-6,0.9-6H340.5z M324.6,279.5c1.5,0.8,2.5,2.3,2.5,4c0,2.5-2.2,4.6-5,4.6s-5-2-5-4.6c0-1.6,0.9-3.1,2.3-3.9
			c-3.5,1.1-6,4.4-6,8.3c0,4.8,3.9,8.7,8.7,8.7s8.7-3.9,8.7-8.7C330.9,283.9,328.2,280.5,324.6,279.5z M512.5,292.3
			c-4.4,0-8.3,2.5-10.2,6.2l-73.8-0.3c6.8-18.5,7.9-29,8-29.7l-0.7,0l0-0.1h0.7c0,0,0,0,0,0l31.1-1.5l-0.3-0.1l27.4-0.3
			c2.6,3.3,6.9,5.1,11.6,4c4.1-0.9,7.6-4.2,8.6-8.4c1.9-7.6-3.9-14.5-11.2-14.5c-4.4,0-8.3,2.5-10.2,6.2l-67.8,0.6
			c-0.6,4.9-1.4,9.5-2.4,13.8c-7,30.2-22.3,44.7-22.3,44.7c-5.1-1.5-0.4-13.6-0.4-13.6s2.1-19.7-13.8-30.8
			c7.1-5.7,5.1-14.9,5.1-14.9s-7.9,6.9-26.8,0c0,0-10.8-3.2-15.7-3.7c0,0-1.3-0.1-3.2-0.1c-1.9,0-3.2,0.1-3.2,0.1
			c-4.9,0.5-15.7,3.7-15.7,3.7c-18.9,6.9-26.8,0-26.8,0s-2,9.2,5.1,14.9c-15.8,11.1-13.8,30.8-13.8,30.8s4.8,12.1-0.4,13.6
			c0,0-16.8-14.5-24.2-44.5l-0.5-2l-2-12l-66.7-0.5c-2-3.7-5.8-6.2-10.2-6.2c-7.3,0-13.1,6.8-11.2,14.5c1,4.1,4.5,7.5,8.6,8.4
			c4.7,1,9-0.8,11.6-4l27.4,0.3l-0.3,0.1l32.8,1.5h-1c0,0,1.1,10.4,8.1,29.5l-73.7,0.3c-2-3.7-5.8-6.2-10.2-6.2
			c-7.3,0-13.1,6.8-11.2,14.5c1,4.1,4.5,7.5,8.6,8.4c4.7,1,9-0.8,11.6-4l80.6,0.9c3.4,7.7,7.6,16.3,12.8,25.7l-64.3,1.4
			c-2-3.7-5.8-6.2-10.2-6.2c-7.4,0-13.1,6.8-11.2,14.5c1,4.1,4.4,7.5,8.6,8.4c4.7,1,9-0.8,11.6-4l74,0.6
			c4.9,7.9,10.4,16.3,16.7,25.1l-53.1,0.4c-2-3.7-5.8-6.2-10.2-6.2c-7.3,0-13.1,6.8-11.2,14.5c1,4.1,4.5,7.5,8.6,8.4
			c4.7,1,9-0.8,11.6-4l64.4,0.7c2.1,2.7,4.2,5.4,6.4,8.2l-9.4,20.4c-4,0-6.4,3.2-6.4,7.2c0,4,3.3,7.3,7.3,7.3c4,0,7.3-3.3,7.3-7.3
			c0-1.8-0.7-3.5-1.8-4.8c1.8-2.8,4.2-5.8,6.9-7.3l-2.8,9.5v30.5h-4.9v16.8h16.8v-16.8h-4.4V432l9.6,9.5v37.3c-2.4,1.3-4,3.9-4,6.8
			c0,4.3,3.5,7.8,7.8,7.8s7.8-3.5,7.8-7.8c0-2.9-1.6-5.4-3.9-6.8v-37.3l9.6-9.6v22.9l-6,0.1l10.2,17l10.4-17.2l-7.3-0.1v-30.1
			l-2.8-9.9c2.9,1.5,5.4,4.6,7.4,7.6c-1.1,1.3-1.8,2.9-1.8,4.8c0,4,3.3,7.3,7.3,7.3c4,0,7.3-3.3,7.3-7.3c0-4-2.3-7.2-6.4-7.2
			l-9.4-20.4c2.2-2.8,4.3-5.5,6.4-8.2l64.4-0.7c2.6,3.2,6.9,5.1,11.6,4c4.1-0.9,7.6-4.2,8.6-8.4c1.9-7.6-3.9-14.5-11.2-14.5
			c-4.4,0-8.3,2.5-10.2,6.2l-53.1-0.4c6.3-8.8,11.9-17.2,16.7-25.1l74-0.6c2.6,3.2,6.9,5.1,11.6,4c4.1-0.9,7.6-4.2,8.6-8.4
			c1.8-7.6-3.9-14.5-11.2-14.5c-4.4,0-8.3,2.5-10.2,6.2l-64.3-1.4c5.2-9.4,9.4-18,12.8-25.7l80.6-0.9c2.6,3.3,6.9,5.1,11.6,4
			c4.2-0.9,7.6-4.2,8.6-8.4C525.5,299.2,519.8,292.3,512.5,292.3z M497.9,257.3c0.6-2.1,2.3-3.7,4.5-4.2c3.3-0.7,6.5,1.4,7.2,4.7
			c0.2,1.1,0.2,2.2-0.2,3.1c0,0.1,0,0.1,0,0.2c-0.6,2.1-2.3,3.8-4.6,4.3c-3.3,0.7-6.5-1.4-7.2-4.7
			C497.5,259.5,497.6,258.3,497.9,257.3z M193.6,260.4c-0.7,3.3-3.9,5.4-7.2,4.7c-3.3-0.7-5.4-3.9-4.7-7.2c0.7-3.3,3.9-5.4,7.2-4.7
			C192.2,253.9,194.3,257.2,193.6,260.4z M185.4,305.1c-0.7,3.3-3.9,5.4-7.2,4.7c-3.3-0.7-5.4-3.9-4.7-7.2c0.7-3.3,3.9-5.4,7.2-4.7
			C184.1,298.7,186.1,301.9,185.4,305.1z M213.4,345.8c-0.7,3.3-3.9,5.4-7.2,4.7c-3.3-0.7-5.4-3.9-4.7-7.2c0.7-3.3,3.9-5.3,7.2-4.7
			C212,339.3,214,342.5,213.4,345.8z M249.8,384.6c-0.7,3.3-3.9,5.4-7.2,4.7c-3.3-0.7-5.4-3.9-4.7-7.2c0.7-3.3,3.9-5.3,7.2-4.7
			C248.4,378.1,250.5,381.3,249.8,384.6z M319,427.5c-0.4,2-2.4,3.3-4.4,2.9c-2-0.4-3.3-2.4-2.9-4.5c0.4-2,2.4-3.3,4.4-2.9
			C318.2,423.5,319.5,425.4,319,427.5z M376.1,423c2-0.4,4,0.9,4.4,2.9c0.4,2-0.9,4-2.9,4.5c-2,0.4-4-0.9-4.4-2.9
			C372.8,425.4,374.1,423.5,376.1,423z M447.1,377.4c3.3-0.7,6.5,1.4,7.2,4.7c0.7,3.3-1.4,6.5-4.7,7.2c-3.3,0.7-6.5-1.4-7.2-4.7
			C441.7,381.3,443.8,378.1,447.1,377.4z M349,385.2l-2.8,3.7l0,0l0,0l-2.8-3.7c0,0-25.6-10.8-37.3-51c3-1,2.5-5,2.4-5.8
			c2.5,9.7,17.5,6.4,17.5,6.4c7-2.5,12.9,1.9,15.4,4.2l-3.7,2.5l8.5,5.9l0,0l0,0l8.5-5.9L351,339c2.5-2.3,8.4-6.7,15.4-4.2
			c0,0,15,3.3,17.5-6.4c-0.1,0.7-0.7,4.7,2.4,5.8C374.6,374.3,349,385.2,349,385.2z M364.7,321.7c-7.5,0-14.3-2.9-19.2-7.7
			c-4.9,4.8-11.7,7.7-19.2,7.7c-15,0-27.2-11.9-27.2-26.5s12.2-26.5,27.2-26.5c7.5,0,14.3,2.9,19.2,7.7c4.9-4.8,11.7-7.7,19.2-7.7
			c15,0,27.2,11.9,27.2,26.5S379.7,321.7,364.7,321.7z M483.6,338.6c3.3-0.7,6.5,1.4,7.2,4.7c0.7,3.3-1.4,6.5-4.7,7.2
			c-3.3,0.7-6.5-1.4-7.2-4.7C478.2,342.5,480.3,339.3,483.6,338.6z M514,309.8c-3.3,0.7-6.5-1.4-7.2-4.7c-0.7-3.3,1.4-6.5,4.7-7.2
			c3.3-0.7,6.5,1.4,7.2,4.7C519.3,305.9,517.2,309.1,514,309.8z M370.6,279.5c1.5,0.8,2.5,2.3,2.5,4c0,2.5-2.2,4.6-5,4.6
			c-2.8,0-5-2-5-4.6c0-1.6,0.9-3.1,2.4-3.9c-3.5,1.1-6,4.4-6,8.3c0,4.8,3.9,8.7,8.7,8.7s8.7-3.9,8.7-8.7
			C376.9,283.9,374.3,280.5,370.6,279.5z M340.5,295.7c0,0-1.4,2.9,1,6h7.5c2.3-3,0.9-6,0.9-6H340.5z M324.6,279.5
			c1.5,0.8,2.5,2.3,2.5,4c0,2.5-2.2,4.6-5,4.6s-5-2-5-4.6c0-1.6,0.9-3.1,2.3-3.9c-3.5,1.1-6,4.4-6,8.3c0,4.8,3.9,8.7,8.7,8.7
			s8.7-3.9,8.7-8.7C330.9,283.9,328.2,280.5,324.6,279.5z"/>
		<linearGradient id="SVGID_45_" gradientUnits="userSpaceOnUse" x1="181.656" y1="259.1779" x2="193.7624" y2="259.1779">
			<stop  offset="4.638738e-02" style="stop-color:#72C0E3"/>
			<stop  offset="5.344639e-02" style="stop-color:#70BEE2"/>
			<stop  offset="0.3022" style="stop-color:#2076B7"/>
			<stop  offset="0.4162" style="stop-color:#005AA6"/>
			<stop  offset="0.5508" style="stop-color:#164396"/>
			<stop  offset="0.7049" style="stop-color:#2A2E87"/>
			<stop  offset="0.8081" style="stop-color:#312782"/>
		</linearGradient>
		<path class="st53" d="M189,253.3c-3.3-0.7-6.5,1.4-7.2,4.7c-0.7,3.3,1.4,6.5,4.7,7.2c3.3,0.7,6.5-1.4,7.2-4.7
			C194.3,257.2,192.2,253.9,189,253.3z"/>
		<linearGradient id="SVGID_46_" gradientUnits="userSpaceOnUse" x1="506.6719" y1="303.8882" x2="518.7716" y2="303.8882">
			<stop  offset="4.638738e-02" style="stop-color:#72C0E3"/>
			<stop  offset="5.344639e-02" style="stop-color:#70BEE2"/>
			<stop  offset="0.3022" style="stop-color:#2076B7"/>
			<stop  offset="0.4162" style="stop-color:#005AA6"/>
			<stop  offset="0.5508" style="stop-color:#164396"/>
			<stop  offset="0.7049" style="stop-color:#2A2E87"/>
			<stop  offset="0.8081" style="stop-color:#312782"/>
		</linearGradient>
		<path class="st54" d="M518.6,302.6c-0.7-3.3-3.9-5.4-7.2-4.7c-3.3,0.7-5.4,3.9-4.7,7.2c0.7,3.3,3.9,5.4,7.2,4.7
			C517.2,309.1,519.3,305.9,518.6,302.6z"/>
		<linearGradient id="SVGID_47_" gradientUnits="userSpaceOnUse" x1="497.5642" y1="261.3688" x2="509.4336" y2="261.3688">
			<stop  offset="4.638738e-02" style="stop-color:#72C0E3"/>
			<stop  offset="5.344639e-02" style="stop-color:#70BEE2"/>
			<stop  offset="0.3022" style="stop-color:#2076B7"/>
			<stop  offset="0.4162" style="stop-color:#005AA6"/>
			<stop  offset="0.5508" style="stop-color:#164396"/>
			<stop  offset="0.7049" style="stop-color:#2A2E87"/>
			<stop  offset="0.8081" style="stop-color:#312782"/>
		</linearGradient>
		<path class="st55" d="M509.4,261.1c-0.7,1.9-2.3,3.4-4.5,3.9c-3.3,0.7-6.5-1.4-7.2-4.7c-0.2-1-0.2-2,0.1-3c-0.4,1-0.5,2.2-0.3,3.3
			c0.7,3.3,3.9,5.4,7.2,4.7C507.1,264.8,508.8,263.1,509.4,261.1z"/>
		<linearGradient id="SVGID_48_" gradientUnits="userSpaceOnUse" x1="478.7649" y1="344.5497" x2="490.8712" y2="344.5497">
			<stop  offset="4.638738e-02" style="stop-color:#72C0E3"/>
			<stop  offset="5.344639e-02" style="stop-color:#70BEE2"/>
			<stop  offset="0.3022" style="stop-color:#2076B7"/>
			<stop  offset="0.4162" style="stop-color:#005AA6"/>
			<stop  offset="0.5508" style="stop-color:#164396"/>
			<stop  offset="0.7049" style="stop-color:#2A2E87"/>
			<stop  offset="0.8081" style="stop-color:#312782"/>
		</linearGradient>
		<path class="st56" d="M483.6,338.6c-3.3,0.7-5.3,3.9-4.7,7.2c0.7,3.3,3.9,5.4,7.2,4.7c3.3-0.7,5.4-3.9,4.7-7.2
			C490,340,486.8,337.9,483.6,338.6z"/>
		<linearGradient id="SVGID_49_" gradientUnits="userSpaceOnUse" x1="442.2919" y1="383.3232" x2="454.3916" y2="383.3232">
			<stop  offset="4.638738e-02" style="stop-color:#72C0E3"/>
			<stop  offset="5.344639e-02" style="stop-color:#70BEE2"/>
			<stop  offset="0.3022" style="stop-color:#2076B7"/>
			<stop  offset="0.4162" style="stop-color:#005AA6"/>
			<stop  offset="0.5508" style="stop-color:#164396"/>
			<stop  offset="0.7049" style="stop-color:#2A2E87"/>
			<stop  offset="0.8081" style="stop-color:#312782"/>
		</linearGradient>
		<path class="st57" d="M447.1,377.4c-3.3,0.7-5.4,3.9-4.7,7.2c0.7,3.3,3.9,5.4,7.2,4.7c3.3-0.7,5.4-3.9,4.7-7.2
			C453.6,378.8,450.4,376.7,447.1,377.4z"/>
		<linearGradient id="SVGID_50_" gradientUnits="userSpaceOnUse" x1="373.1309" y1="426.6896" x2="380.6192" y2="426.6896">
			<stop  offset="4.638738e-02" style="stop-color:#72C0E3"/>
			<stop  offset="5.344639e-02" style="stop-color:#70BEE2"/>
			<stop  offset="0.3022" style="stop-color:#2076B7"/>
			<stop  offset="0.4162" style="stop-color:#005AA6"/>
			<stop  offset="0.5508" style="stop-color:#164396"/>
			<stop  offset="0.7049" style="stop-color:#2A2E87"/>
			<stop  offset="0.8081" style="stop-color:#312782"/>
		</linearGradient>
		<path class="st58" d="M376.1,423c-2,0.4-3.3,2.4-2.9,4.5c0.4,2,2.4,3.3,4.4,2.9c2-0.4,3.3-2.4,2.9-4.5
			C380.1,423.9,378.1,422.6,376.1,423z"/>
		<linearGradient id="SVGID_51_" gradientUnits="userSpaceOnUse" x1="338.9923" y1="307.9445" x2="353.3808" y2="307.9445">
			<stop  offset="4.638738e-02" style="stop-color:#72C0E3"/>
			<stop  offset="5.344639e-02" style="stop-color:#70BEE2"/>
			<stop  offset="0.3022" style="stop-color:#2076B7"/>
			<stop  offset="0.4162" style="stop-color:#005AA6"/>
			<stop  offset="0.5508" style="stop-color:#164396"/>
			<stop  offset="0.7049" style="stop-color:#2A2E87"/>
			<stop  offset="0.8081" style="stop-color:#312782"/>
		</linearGradient>
		<path class="st59" d="M346.2,314.2C346.2,314.2,346.2,314.2,346.2,314.2C346.2,314.2,346.2,314.2,346.2,314.2
			c-10.1-5.2-6.6-12.5-6.6-12.5h13.2C352.8,301.7,356.3,309,346.2,314.2z"/>
		<linearGradient id="SVGID_52_" gradientUnits="userSpaceOnUse" x1="311.6309" y1="426.6896" x2="319.1162" y2="426.6896">
			<stop  offset="4.638738e-02" style="stop-color:#72C0E3"/>
			<stop  offset="5.344639e-02" style="stop-color:#70BEE2"/>
			<stop  offset="0.3022" style="stop-color:#2076B7"/>
			<stop  offset="0.4162" style="stop-color:#005AA6"/>
			<stop  offset="0.5508" style="stop-color:#164396"/>
			<stop  offset="0.7049" style="stop-color:#2A2E87"/>
			<stop  offset="0.8081" style="stop-color:#312782"/>
		</linearGradient>
		<path class="st60" d="M316.2,423c-2-0.4-4,0.9-4.4,2.9c-0.4,2,0.9,4,2.9,4.5c2,0.4,4-0.9,4.4-2.9
			C319.5,425.4,318.2,423.5,316.2,423z"/>
		<linearGradient id="SVGID_53_" gradientUnits="userSpaceOnUse" x1="237.8494" y1="383.3232" x2="249.9557" y2="383.3232">
			<stop  offset="4.638738e-02" style="stop-color:#72C0E3"/>
			<stop  offset="5.344639e-02" style="stop-color:#70BEE2"/>
			<stop  offset="0.3022" style="stop-color:#2076B7"/>
			<stop  offset="0.4162" style="stop-color:#005AA6"/>
			<stop  offset="0.5508" style="stop-color:#164396"/>
			<stop  offset="0.7049" style="stop-color:#2A2E87"/>
			<stop  offset="0.8081" style="stop-color:#312782"/>
		</linearGradient>
		<path class="st61" d="M245.2,377.4c-3.3-0.7-6.5,1.4-7.2,4.7c-0.7,3.3,1.4,6.5,4.7,7.2c3.3,0.7,6.5-1.4,7.2-4.7
			C250.5,381.3,248.4,378.1,245.2,377.4z"/>
		<linearGradient id="SVGID_54_" gradientUnits="userSpaceOnUse" x1="201.379" y1="344.5497" x2="213.4853" y2="344.5497">
			<stop  offset="4.638738e-02" style="stop-color:#72C0E3"/>
			<stop  offset="5.344639e-02" style="stop-color:#70BEE2"/>
			<stop  offset="0.3022" style="stop-color:#2076B7"/>
			<stop  offset="0.4162" style="stop-color:#005AA6"/>
			<stop  offset="0.5508" style="stop-color:#164396"/>
			<stop  offset="0.7049" style="stop-color:#2A2E87"/>
			<stop  offset="0.8081" style="stop-color:#312782"/>
		</linearGradient>
		<path class="st62" d="M208.7,338.6c-3.3-0.7-6.5,1.4-7.2,4.7c-0.7,3.3,1.4,6.5,4.7,7.2c3.3,0.7,6.5-1.4,7.2-4.7
			C214,342.5,212,339.3,208.7,338.6z"/>
		<linearGradient id="SVGID_55_" gradientUnits="userSpaceOnUse" x1="181.656" y1="259.1779" x2="193.7624" y2="259.1779">
			<stop  offset="4.638738e-02" style="stop-color:#72C0E3"/>
			<stop  offset="5.344639e-02" style="stop-color:#70BEE2"/>
			<stop  offset="0.3022" style="stop-color:#2076B7"/>
			<stop  offset="0.4162" style="stop-color:#005AA6"/>
			<stop  offset="0.5508" style="stop-color:#164396"/>
			<stop  offset="0.7049" style="stop-color:#2A2E87"/>
			<stop  offset="0.8081" style="stop-color:#312782"/>
		</linearGradient>
		<path class="st63" d="M189,253.3c-3.3-0.7-6.5,1.4-7.2,4.7c-0.7,3.3,1.4,6.5,4.7,7.2c3.3,0.7,6.5-1.4,7.2-4.7
			C194.3,257.2,192.2,253.9,189,253.3z"/>
		<g>
			<path class="st2" d="M213.4,345.8c-0.7,3.3-3.9,5.4-7.2,4.7c-3.3-0.7-5.4-3.9-4.7-7.2c0.7-3.3,3.9-5.3,7.2-4.7
				C212,339.3,214,342.5,213.4,345.8z"/>
		</g>
		<g>
			<path class="st2" d="M249.8,384.6c-0.7,3.3-3.9,5.4-7.2,4.7c-3.3-0.7-5.4-3.9-4.7-7.2c0.7-3.3,3.9-5.3,7.2-4.7
				C248.4,378.1,250.5,381.3,249.8,384.6z"/>
		</g>
		<g>
			<path class="st2" d="M319,427.5c-0.4,2-2.4,3.3-4.4,2.9c-2-0.4-3.3-2.4-2.9-4.5c0.4-2,2.4-3.3,4.4-2.9
				C318.2,423.5,319.5,425.4,319,427.5z"/>
		</g>
		<g>
			<path class="st2" d="M377.7,430.4c-2,0.4-4-0.9-4.4-2.9c-0.4-2,0.9-4,2.9-4.5c2-0.4,4,0.9,4.4,2.9
				C381,427.9,379.7,429.9,377.7,430.4z"/>
		</g>
		<g>
			<path class="st2" d="M449.6,389.2c-3.3,0.7-6.5-1.4-7.2-4.7c-0.7-3.3,1.4-6.5,4.7-7.2c3.3-0.7,6.5,1.4,7.2,4.7
				C455,385.3,452.9,388.6,449.6,389.2z"/>
		</g>
		<g>
			<path class="st2" d="M486.1,350.5c-3.3,0.7-6.5-1.4-7.2-4.7c-0.7-3.3,1.4-6.5,4.7-7.2c3.3-0.7,6.5,1.4,7.2,4.7
				C491.4,346.6,489.3,349.8,486.1,350.5z"/>
		</g>
		<g>
			<path class="st2" d="M514,309.8c-3.3,0.7-6.5-1.4-7.2-4.7c-0.7-3.3,1.4-6.5,4.7-7.2c3.3-0.7,6.5,1.4,7.2,4.7
				C519.3,305.9,517.2,309.1,514,309.8z"/>
		</g>
		<g>
			<path class="st2" d="M509.5,260.9c0,0.1,0,0.1,0,0.2c-0.6,2.1-2.3,3.8-4.6,4.3c-3.3,0.7-6.5-1.4-7.2-4.7
				c-0.2-1.2-0.1-2.3,0.3-3.3c0.7-1.9,2.3-3.4,4.4-3.8c3.3-0.7,6.5,1.4,7.2,4.7C509.7,259.1,509.7,260,509.5,260.9z"/>
		</g>
		<g>
			<linearGradient id="SVGID_56_" gradientUnits="userSpaceOnUse" x1="181.656" y1="259.1779" x2="193.7624" y2="259.1779">
				<stop  offset="4.638738e-02" style="stop-color:#72C0E3"/>
				<stop  offset="5.344639e-02" style="stop-color:#70BEE2"/>
				<stop  offset="0.3022" style="stop-color:#2076B7"/>
				<stop  offset="0.4162" style="stop-color:#005AA6"/>
				<stop  offset="0.5508" style="stop-color:#164396"/>
				<stop  offset="0.7049" style="stop-color:#2A2E87"/>
				<stop  offset="0.8081" style="stop-color:#312782"/>
			</linearGradient>
			<path class="st64" d="M193.6,260.4c-0.7,3.3-3.9,5.4-7.2,4.7c-3.3-0.7-5.4-3.9-4.7-7.2c0.7-3.3,3.9-5.4,7.2-4.7
				C192.2,253.9,194.3,257.2,193.6,260.4z"/>
			<g>
				<path class="st2" d="M193.6,260.4c-0.7,3.3-3.9,5.4-7.2,4.7c-3.3-0.7-5.4-3.9-4.7-7.2c0.7-3.3,3.9-5.4,7.2-4.7
					C192.2,253.9,194.3,257.2,193.6,260.4z"/>
			</g>
		</g>
		<g>
			<linearGradient id="SVGID_57_" gradientUnits="userSpaceOnUse" x1="435.7836" y1="268.5046" x2="436.4936" y2="268.5046">
				<stop  offset="4.638738e-02" style="stop-color:#72C0E3"/>
				<stop  offset="5.344639e-02" style="stop-color:#70BEE2"/>
				<stop  offset="0.3022" style="stop-color:#2076B7"/>
				<stop  offset="0.4162" style="stop-color:#005AA6"/>
				<stop  offset="0.5508" style="stop-color:#164396"/>
				<stop  offset="0.7049" style="stop-color:#2A2E87"/>
				<stop  offset="0.8081" style="stop-color:#312782"/>
			</linearGradient>
			<path class="st65" d="M436.5,268.5C436.5,268.5,436.5,268.5,436.5,268.5l-0.7,0.1l0-0.1H436.5z"/>
			<linearGradient id="SVGID_58_" gradientUnits="userSpaceOnUse" x1="497.6807" y1="259.0132" x2="509.7788" y2="259.0132">
				<stop  offset="4.638738e-02" style="stop-color:#72C0E3"/>
				<stop  offset="5.344639e-02" style="stop-color:#70BEE2"/>
				<stop  offset="0.3022" style="stop-color:#2076B7"/>
				<stop  offset="0.4162" style="stop-color:#005AA6"/>
				<stop  offset="0.5508" style="stop-color:#164396"/>
				<stop  offset="0.7049" style="stop-color:#2A2E87"/>
				<stop  offset="0.8081" style="stop-color:#312782"/>
			</linearGradient>
			<path class="st66" d="M509.5,260.9c0,0.1,0,0.1,0,0.2c-0.7,1.9-2.3,3.4-4.5,3.9c-3.3,0.7-6.5-1.4-7.2-4.7c-0.2-1-0.2-2,0.1-3
				c0.6-2.1,2.3-3.7,4.5-4.2c3.3-0.7,6.5,1.4,7.2,4.7C509.9,258.8,509.8,259.9,509.5,260.9z"/>
			<g>
				<path class="st2" d="M509.5,260.9c0,0.1,0,0.1,0,0.2c-0.7,1.9-2.3,3.4-4.5,3.9c-3.3,0.7-6.5-1.4-7.2-4.7c-0.2-1-0.2-2,0.1-3
					c0.6-2.1,2.3-3.7,4.5-4.2c3.3-0.7,6.5,1.4,7.2,4.7C509.9,258.8,509.8,259.9,509.5,260.9z"/>
			</g>
		</g>
		<g>
			<path class="st2" d="M364.7,268.7c-7.5,0-14.3,2.9-19.2,7.7c-4.9-4.8-11.7-7.7-19.2-7.7c-15,0-27.2,11.9-27.2,26.5
				s12.2,26.5,27.2,26.5c7.5,0,14.3-2.9,19.2-7.7c4.9,4.8,11.7,7.7,19.2,7.7c15,0,27.2-11.9,27.2-26.5S379.7,268.7,364.7,268.7z
				 M322.2,296.5c-4.8,0-8.7-3.9-8.7-8.7c0-3.9,2.5-7.1,6-8.3c-1.4,0.8-2.3,2.2-2.3,3.9c0,2.5,2.2,4.6,5,4.6s5-2,5-4.6
				c0-1.7-1-3.2-2.5-4c3.6,1,6.3,4.4,6.3,8.4C330.9,292.7,327,296.5,322.2,296.5z M341.5,301.7c-2.3-3-1-6-1-6h9.4
				c0,0,1.4,2.9-0.9,6 M368.2,296.5c-4.8,0-8.7-3.9-8.7-8.7c0-3.9,2.5-7.1,6-8.3c-1.4,0.8-2.4,2.2-2.4,3.9c0,2.5,2.2,4.6,5,4.6
				c2.8,0,5-2,5-4.6c0-1.7-1-3.2-2.5-4c3.6,1,6.3,4.4,6.3,8.4C376.9,292.7,373,296.5,368.2,296.5z"/>
		</g>
		<g>
			<path class="st2" d="M330.9,287.9c0,4.8-3.9,8.7-8.7,8.7s-8.7-3.9-8.7-8.7c0-3.9,2.5-7.1,6-8.3c-1.4,0.8-2.3,2.2-2.3,3.9
				c0,2.5,2.2,4.6,5,4.6s5-2,5-4.6c0-1.7-1-3.2-2.5-4C328.2,280.5,330.9,283.9,330.9,287.9z"/>
		</g>
		<g>
			<path class="st2" d="M346.2,314.2C346.2,314.2,346.2,314.2,346.2,314.2C346.2,314.2,346.2,314.2,346.2,314.2
				c-10.1-5.2-6.6-12.5-6.6-12.5h1.9c-2.3-3-1-6-1-6h9.4c0,0,1.4,2.9-0.9,6"/>
		</g>
		<g>
			<path class="st2" d="M376.9,287.9c0,4.8-3.9,8.7-8.7,8.7s-8.7-3.9-8.7-8.7c0-3.9,2.5-7.1,6-8.3c-1.4,0.8-2.4,2.2-2.4,3.9
				c0,2.5,2.2,4.6,5,4.6c2.8,0,5-2,5-4.6c0-1.7-1-3.2-2.5-4C374.3,280.5,376.9,283.9,376.9,287.9z"/>
		</g>
		<g>
			<path class="st38" d="M345.2,304.2c-1.5-0.8-2.7-1.7-3.5-2.8c-1.9-2.4-1.2-4.7-1-5.4h9c0.3,0.7,0.9,3-1,5.4
				C348,302.5,346.8,303.4,345.2,304.2L345.2,304.2L345.2,304.2z"/>
			<path class="st38" d="M349.5,296.4c0.2,0.8,0.6,2.8-1,4.8c-0.7,0.9-1.7,1.8-3.1,2.5l0,0l-0.1,0.1c-1.4-0.8-2.5-1.6-3.2-2.6
				c-1.6-2-1.3-4-1-4.8H349.5 M350,295.7h-9.4c0,0-1.4,2.9,1,6c0.8,1,2,2,3.8,2.9c0,0,0,0,0,0s0,0,0,0c1.8-0.9,3-1.9,3.8-2.9
				C351.4,298.7,350,295.7,350,295.7L350,295.7z"/>
		</g>
		<g>
			<g>
				<g>
					<path class="st39" d="M330.9,287.9c0,4.8-3.9,8.7-8.7,8.7s-8.7-3.9-8.7-8.7c0-3.9,2.5-7.1,6-8.3c-1.4,0.8-2.3,2.2-2.3,3.9
						c0,2.5,2.2,4.6,5,4.6s5-2,5-4.6c0-1.7-1-3.2-2.5-4C328.2,280.5,330.9,283.9,330.9,287.9z"/>
				</g>
			</g>
			<g>
				<g>
					<path class="st39" d="M376.9,287.9c0,4.8-3.9,8.7-8.7,8.7s-8.7-3.9-8.7-8.7c0-3.9,2.5-7.1,6-8.3c-1.4,0.8-2.4,2.2-2.4,3.9
						c0,2.5,2.2,4.6,5,4.6c2.8,0,5-2,5-4.6c0-1.7-1-3.2-2.5-4C374.3,280.5,376.9,283.9,376.9,287.9z"/>
				</g>
			</g>
		</g>
	</g>
</g>
</svg>
